<svg width="40" height="40" viewBox="0 0 40 40" fill="none" xmlns="http://www.w3.org/2000/svg">
<path fill-rule="evenodd" clip-rule="evenodd" d="M8.15519 16.9662C8.56486 18.3245 9.06075 19.5986 9.59978 20.8276C10.5269 23.0288 11.1522 24.1931 12.0166 25.6377L12.1124 25.7941C13.144 27.4802 14.2971 29.3649 16.1582 30.5987C17.5597 31.5258 19.265 32.0001 20.9036 32.0001C23.2126 32.0001 25.1962 30.9867 26.4702 29.799C27.7208 28.6347 29.3398 26.3904 29.3398 22.0115C29.3398 20.5888 29.9337 19.3559 30.4172 18.3523L30.5041 18.1717C30.5041 18.1502 30.5256 18.1071 30.5687 18.0208C30.7628 17.5896 30.9999 17.0291 30.9999 16.4684C30.9999 16.0588 30.8921 15.5844 30.6119 15.1748C30.1807 14.4417 29.4045 14.183 28.691 14.183C27.0308 14.183 25.8861 15.3473 25.3039 16.5351L25.1099 16.9232C24.8727 16.5782 24.6355 16.2117 24.4415 15.8883C23.8378 14.8318 23.4928 14.1203 23.1909 13.2128C22.9538 12.5012 22.7597 11.682 22.6304 11.0116C22.2638 8.89665 21.6601 8.20672 20.6664 7.94801C19.9333 7.75397 19.0709 7.90487 18.4436 8.31454C18.0144 7.3443 17.2813 6.91309 16.3091 6.91309C14.9292 6.91309 13.6767 7.81865 13.6767 9.35143C13.6767 9.51519 13.692 9.67895 13.7098 9.86865L13.7198 9.97668C13.5473 9.93354 13.3533 9.912 13.1593 9.912C11.6715 9.912 10.57 10.9469 10.57 12.3503C10.57 12.6737 10.6131 13.0403 10.7209 13.4715C10.5915 13.4499 10.4621 13.4499 10.3328 13.4499C9.59972 13.4931 8.93134 13.7733 8.45502 14.3555C7.98269 14.916 7.78865 15.7784 8.15519 16.9662ZM9.38416 16.5781C9.19012 15.9529 9.21166 15.4785 9.44883 15.1767C9.68601 14.8963 10.0094 14.767 10.3975 14.7454C11.0659 14.7239 11.3246 15.1982 11.7128 16.4272C11.95 17.2034 12.4243 18.3265 12.7046 18.9518C13.0711 19.7064 13.5886 20.7198 13.8257 21.0668C14.0197 21.3686 14.1922 21.4549 14.3863 21.4549C14.7313 21.4549 14.99 21.2608 14.99 20.9158C14.99 20.7411 14.8327 20.4615 14.7226 20.2659L14.6881 20.2043C14.649 20.1304 14.6012 20.0417 14.5474 19.9419C14.3342 19.5467 14.0279 18.9787 13.8041 18.4794C13.5022 17.7895 13.1573 16.927 12.877 16.1489C12.7045 15.6962 12.5105 15.0493 12.3164 14.4025C12.0146 13.4107 11.8637 12.807 11.8637 12.3522C11.8637 11.6623 12.3812 11.2095 13.1573 11.2095C13.7179 11.2095 14.0844 11.4898 14.3216 12.5031C14.5156 13.4302 14.8606 14.9414 15.3565 16.1273C15.6799 16.9035 16.1543 17.9404 16.4346 18.4578C16.4909 18.5564 16.5496 18.6504 16.603 18.7361C16.7131 18.9126 16.8011 19.0536 16.8011 19.1262C16.8011 19.2222 16.6879 19.3529 16.5444 19.5186C16.4622 19.6135 16.37 19.7199 16.2836 19.8378C16.1327 20.0318 16.068 20.1612 16.068 20.3121C16.068 20.4415 16.1542 20.5708 16.2836 20.7433C16.413 20.9158 16.5423 21.0883 16.6933 21.0883C16.8011 21.0883 16.8658 21.0452 16.9305 20.959C17.5989 20.1181 18.3319 19.536 19.1748 19.0597C20.1666 18.4991 21.1819 18.2188 21.9796 18.0463C22.3677 17.9601 22.4755 17.8738 22.4755 17.6582C22.4755 17.3995 22.2815 17.2485 22.0228 17.227C21.8642 17.2094 21.7201 17.2205 21.508 17.237C21.4605 17.2406 21.4096 17.2446 21.3544 17.2485C21.1388 17.2701 21.031 17.1623 20.9016 16.882C20.8413 16.7546 20.7721 16.6136 20.6965 16.4596C20.2862 15.6235 19.6885 14.4058 19.3062 12.9128C19.1121 12.1582 18.9396 11.3604 18.8318 10.3235C18.7671 9.84918 18.8533 9.67669 19.0905 9.46111C19.3924 9.20239 19.9314 9.09458 20.3411 9.20239C20.837 9.33175 21.0957 9.71988 21.3545 11.2311C21.4838 11.9426 21.6995 12.8482 21.9582 13.6263C22.2816 14.618 22.6912 15.4394 23.3165 16.539C23.6615 17.1427 24.0927 17.7679 24.5454 18.3736C24.4592 18.6323 24.3083 18.8048 23.8124 19.2145C23.3165 19.6242 22.8206 20.0554 22.3678 20.8531C22.0444 21.4353 21.8934 22.0821 21.8934 22.5133C21.8934 22.923 21.9796 23.0092 22.2384 23.0092C22.6912 23.0092 23.0578 22.923 23.0793 22.7289C23.1871 21.9527 23.3165 21.4568 23.7477 20.8727C24.0064 20.5493 24.4592 20.1396 24.8258 19.8162C25.5157 19.2557 25.7529 18.9322 25.99 18.1345C26.0979 17.7679 26.2272 17.4229 26.3997 17.0995C26.8094 16.3449 27.5425 15.4824 28.6872 15.4824C29.0537 15.4824 29.3555 15.5903 29.5496 15.8921C29.6574 16.0646 29.7005 16.3018 29.7005 16.4743C29.7005 16.8437 29.4465 17.3499 29.3104 17.621L29.2908 17.6602L29.2165 17.8184C28.7397 18.8318 28.0402 20.3186 28.0402 22.0175C28.0402 25.9219 26.6603 27.8644 25.5804 28.8562C24.5239 29.8479 22.8617 30.7123 20.8997 30.7123C19.4982 30.7123 18.0517 30.3027 16.8658 29.5265C15.2393 28.4491 14.211 26.7697 13.1764 25.0798L13.1123 24.9751C12.2714 23.5737 11.6893 22.4721 10.7817 20.3376C10.2701 19.1007 9.79383 17.8933 9.38416 16.5781ZM16.3092 8.20862C15.6839 8.20862 14.9293 8.53207 14.9293 9.35136C14.9293 9.89039 15.0802 10.6881 15.2312 11.333C15.4188 11.7877 15.4931 12.1168 15.6429 12.781C15.6998 13.0329 15.7675 13.3331 15.8565 13.7067C16.0505 14.5064 16.2877 15.1963 16.5249 15.8C16.8051 16.5351 17.1286 17.1603 17.5813 18.0012C17.797 18.4109 17.9047 18.4109 18.4222 18.1306C18.8319 17.915 19.4356 17.6562 19.8884 17.5053C19.1121 15.8236 18.4653 14.4202 18.1419 13.2343C18.0556 12.8894 17.7538 11.5075 17.6676 10.9038C17.6029 10.3001 17.5381 9.78257 17.3872 9.222C17.2147 8.53201 16.9776 8.20862 16.3092 8.20862Z" fill="url(#paint0_linear_1163_203)"/>
<path fill-rule="evenodd" clip-rule="evenodd" d="M8.15519 16.9662C8.56486 18.3245 9.06075 19.5986 9.59978 20.8276C10.5269 23.0288 11.1522 24.1931 12.0166 25.6377L12.1124 25.7941C13.144 27.4802 14.2971 29.3649 16.1582 30.5987C17.5597 31.5258 19.265 32.0001 20.9036 32.0001C23.2126 32.0001 25.1962 30.9867 26.4702 29.799C27.7208 28.6347 29.3398 26.3904 29.3398 22.0115C29.3398 20.5888 29.9337 19.3559 30.4172 18.3523L30.5041 18.1717C30.5041 18.1502 30.5256 18.1071 30.5687 18.0208C30.7628 17.5896 30.9999 17.0291 30.9999 16.4684C30.9999 16.0588 30.8921 15.5844 30.6119 15.1748C30.1807 14.4417 29.4045 14.183 28.691 14.183C27.0308 14.183 25.8861 15.3473 25.3039 16.5351L25.1099 16.9232C24.8727 16.5782 24.6355 16.2117 24.4415 15.8883C23.8378 14.8318 23.4928 14.1203 23.1909 13.2128C22.9538 12.5012 22.7597 11.682 22.6304 11.0116C22.2638 8.89665 21.6601 8.20672 20.6664 7.94801C19.9333 7.75397 19.0709 7.90487 18.4436 8.31454C18.0144 7.3443 17.2813 6.91309 16.3091 6.91309C14.9292 6.91309 13.6767 7.81865 13.6767 9.35143C13.6767 9.51519 13.692 9.67895 13.7098 9.86865L13.7198 9.97668C13.5473 9.93354 13.3533 9.912 13.1593 9.912C11.6715 9.912 10.57 10.9469 10.57 12.3503C10.57 12.6737 10.6131 13.0403 10.7209 13.4715C10.5915 13.4499 10.4621 13.4499 10.3328 13.4499C9.59972 13.4931 8.93134 13.7733 8.45502 14.3555C7.98269 14.916 7.78865 15.7784 8.15519 16.9662ZM9.38416 16.5781C9.19012 15.9529 9.21166 15.4785 9.44883 15.1767C9.68601 14.8963 10.0094 14.767 10.3975 14.7454C11.0659 14.7239 11.3246 15.1982 11.7128 16.4272C11.95 17.2034 12.4243 18.3265 12.7046 18.9518C13.0711 19.7064 13.5886 20.7198 13.8257 21.0668C14.0197 21.3686 14.1922 21.4549 14.3863 21.4549C14.7313 21.4549 14.99 21.2608 14.99 20.9158C14.99 20.7411 14.8327 20.4615 14.7226 20.2659L14.6881 20.2043C14.649 20.1304 14.6012 20.0417 14.5474 19.9419C14.3342 19.5467 14.0279 18.9787 13.8041 18.4794C13.5022 17.7895 13.1573 16.927 12.877 16.1489C12.7045 15.6962 12.5105 15.0493 12.3164 14.4025C12.0146 13.4107 11.8637 12.807 11.8637 12.3522C11.8637 11.6623 12.3812 11.2095 13.1573 11.2095C13.7179 11.2095 14.0844 11.4898 14.3216 12.5031C14.5156 13.4302 14.8606 14.9414 15.3565 16.1273C15.6799 16.9035 16.1543 17.9404 16.4346 18.4578C16.4909 18.5564 16.5496 18.6504 16.603 18.7361C16.7131 18.9126 16.8011 19.0536 16.8011 19.1262C16.8011 19.2222 16.6879 19.3529 16.5444 19.5186C16.4622 19.6135 16.37 19.7199 16.2836 19.8378C16.1327 20.0318 16.068 20.1612 16.068 20.3121C16.068 20.4415 16.1542 20.5708 16.2836 20.7433C16.413 20.9158 16.5423 21.0883 16.6933 21.0883C16.8011 21.0883 16.8658 21.0452 16.9305 20.959C17.5989 20.1181 18.3319 19.536 19.1748 19.0597C20.1666 18.4991 21.1819 18.2188 21.9796 18.0463C22.3677 17.9601 22.4755 17.8738 22.4755 17.6582C22.4755 17.3995 22.2815 17.2485 22.0228 17.227C21.8642 17.2094 21.7201 17.2205 21.508 17.237C21.4605 17.2406 21.4096 17.2446 21.3544 17.2485C21.1388 17.2701 21.031 17.1623 20.9016 16.882C20.8413 16.7546 20.7721 16.6136 20.6965 16.4596C20.2862 15.6235 19.6885 14.4058 19.3062 12.9128C19.1121 12.1582 18.9396 11.3604 18.8318 10.3235C18.7671 9.84918 18.8533 9.67669 19.0905 9.46111C19.3924 9.20239 19.9314 9.09458 20.3411 9.20239C20.837 9.33175 21.0957 9.71988 21.3545 11.2311C21.4838 11.9426 21.6995 12.8482 21.9582 13.6263C22.2816 14.618 22.6912 15.4394 23.3165 16.539C23.6615 17.1427 24.0927 17.7679 24.5454 18.3736C24.4592 18.6323 24.3083 18.8048 23.8124 19.2145C23.3165 19.6242 22.8206 20.0554 22.3678 20.8531C22.0444 21.4353 21.8934 22.0821 21.8934 22.5133C21.8934 22.923 21.9796 23.0092 22.2384 23.0092C22.6912 23.0092 23.0578 22.923 23.0793 22.7289C23.1871 21.9527 23.3165 21.4568 23.7477 20.8727C24.0064 20.5493 24.4592 20.1396 24.8258 19.8162C25.5157 19.2557 25.7529 18.9322 25.99 18.1345C26.0979 17.7679 26.2272 17.4229 26.3997 17.0995C26.8094 16.3449 27.5425 15.4824 28.6872 15.4824C29.0537 15.4824 29.3555 15.5903 29.5496 15.8921C29.6574 16.0646 29.7005 16.3018 29.7005 16.4743C29.7005 16.8437 29.4465 17.3499 29.3104 17.621L29.2908 17.6602L29.2165 17.8184C28.7397 18.8318 28.0402 20.3186 28.0402 22.0175C28.0402 25.9219 26.6603 27.8644 25.5804 28.8562C24.5239 29.8479 22.8617 30.7123 20.8997 30.7123C19.4982 30.7123 18.0517 30.3027 16.8658 29.5265C15.2393 28.4491 14.211 26.7697 13.1764 25.0798L13.1123 24.9751C12.2714 23.5737 11.6893 22.4721 10.7817 20.3376C10.2701 19.1007 9.79383 17.8933 9.38416 16.5781ZM16.3092 8.20862C15.6839 8.20862 14.9293 8.53207 14.9293 9.35136C14.9293 9.89039 15.0802 10.6881 15.2312 11.333C15.4188 11.7877 15.4931 12.1168 15.6429 12.781C15.6998 13.0329 15.7675 13.3331 15.8565 13.7067C16.0505 14.5064 16.2877 15.1963 16.5249 15.8C16.8051 16.5351 17.1286 17.1603 17.5813 18.0012C17.797 18.4109 17.9047 18.4109 18.4222 18.1306C18.8319 17.915 19.4356 17.6562 19.8884 17.5053C19.1121 15.8236 18.4653 14.4202 18.1419 13.2343C18.0556 12.8894 17.7538 11.5075 17.6676 10.9038C17.6029 10.3001 17.5381 9.78257 17.3872 9.222C17.2147 8.53201 16.9776 8.20862 16.3092 8.20862Z" fill="url(#paint1_radial_1163_203)" fill-opacity="0.8"/>
<path fill-rule="evenodd" clip-rule="evenodd" d="M8.15519 16.9662C8.56486 18.3245 9.06075 19.5986 9.59978 20.8276C10.5269 23.0288 11.1522 24.1931 12.0166 25.6377L12.1124 25.7941C13.144 27.4802 14.2971 29.3649 16.1582 30.5987C17.5597 31.5258 19.265 32.0001 20.9036 32.0001C23.2126 32.0001 25.1962 30.9867 26.4702 29.799C27.7208 28.6347 29.3398 26.3904 29.3398 22.0115C29.3398 20.5888 29.9337 19.3559 30.4172 18.3523L30.5041 18.1717C30.5041 18.1502 30.5256 18.1071 30.5687 18.0208C30.7628 17.5896 30.9999 17.0291 30.9999 16.4684C30.9999 16.0588 30.8921 15.5844 30.6119 15.1748C30.1807 14.4417 29.4045 14.183 28.691 14.183C27.0308 14.183 25.8861 15.3473 25.3039 16.5351L25.1099 16.9232C24.8727 16.5782 24.6355 16.2117 24.4415 15.8883C23.8378 14.8318 23.4928 14.1203 23.1909 13.2128C22.9538 12.5012 22.7597 11.682 22.6304 11.0116C22.2638 8.89665 21.6601 8.20672 20.6664 7.94801C19.9333 7.75397 19.0709 7.90487 18.4436 8.31454C18.0144 7.3443 17.2813 6.91309 16.3091 6.91309C14.9292 6.91309 13.6767 7.81865 13.6767 9.35143C13.6767 9.51519 13.692 9.67895 13.7098 9.86865L13.7198 9.97668C13.5473 9.93354 13.3533 9.912 13.1593 9.912C11.6715 9.912 10.57 10.9469 10.57 12.3503C10.57 12.6737 10.6131 13.0403 10.7209 13.4715C10.5915 13.4499 10.4621 13.4499 10.3328 13.4499C9.59972 13.4931 8.93134 13.7733 8.45502 14.3555C7.98269 14.916 7.78865 15.7784 8.15519 16.9662ZM9.38416 16.5781C9.19012 15.9529 9.21166 15.4785 9.44883 15.1767C9.68601 14.8963 10.0094 14.767 10.3975 14.7454C11.0659 14.7239 11.3246 15.1982 11.7128 16.4272C11.95 17.2034 12.4243 18.3265 12.7046 18.9518C13.0711 19.7064 13.5886 20.7198 13.8257 21.0668C14.0197 21.3686 14.1922 21.4549 14.3863 21.4549C14.7313 21.4549 14.99 21.2608 14.99 20.9158C14.99 20.7411 14.8327 20.4615 14.7226 20.2659L14.6881 20.2043C14.649 20.1304 14.6012 20.0417 14.5474 19.9419C14.3342 19.5467 14.0279 18.9787 13.8041 18.4794C13.5022 17.7895 13.1573 16.927 12.877 16.1489C12.7045 15.6962 12.5105 15.0493 12.3164 14.4025C12.0146 13.4107 11.8637 12.807 11.8637 12.3522C11.8637 11.6623 12.3812 11.2095 13.1573 11.2095C13.7179 11.2095 14.0844 11.4898 14.3216 12.5031C14.5156 13.4302 14.8606 14.9414 15.3565 16.1273C15.6799 16.9035 16.1543 17.9404 16.4346 18.4578C16.4909 18.5564 16.5496 18.6504 16.603 18.7361C16.7131 18.9126 16.8011 19.0536 16.8011 19.1262C16.8011 19.2222 16.6879 19.3529 16.5444 19.5186C16.4622 19.6135 16.37 19.7199 16.2836 19.8378C16.1327 20.0318 16.068 20.1612 16.068 20.3121C16.068 20.4415 16.1542 20.5708 16.2836 20.7433C16.413 20.9158 16.5423 21.0883 16.6933 21.0883C16.8011 21.0883 16.8658 21.0452 16.9305 20.959C17.5989 20.1181 18.3319 19.536 19.1748 19.0597C20.1666 18.4991 21.1819 18.2188 21.9796 18.0463C22.3677 17.9601 22.4755 17.8738 22.4755 17.6582C22.4755 17.3995 22.2815 17.2485 22.0228 17.227C21.8642 17.2094 21.7201 17.2205 21.508 17.237C21.4605 17.2406 21.4096 17.2446 21.3544 17.2485C21.1388 17.2701 21.031 17.1623 20.9016 16.882C20.8413 16.7546 20.7721 16.6136 20.6965 16.4596C20.2862 15.6235 19.6885 14.4058 19.3062 12.9128C19.1121 12.1582 18.9396 11.3604 18.8318 10.3235C18.7671 9.84918 18.8533 9.67669 19.0905 9.46111C19.3924 9.20239 19.9314 9.09458 20.3411 9.20239C20.837 9.33175 21.0957 9.71988 21.3545 11.2311C21.4838 11.9426 21.6995 12.8482 21.9582 13.6263C22.2816 14.618 22.6912 15.4394 23.3165 16.539C23.6615 17.1427 24.0927 17.7679 24.5454 18.3736C24.4592 18.6323 24.3083 18.8048 23.8124 19.2145C23.3165 19.6242 22.8206 20.0554 22.3678 20.8531C22.0444 21.4353 21.8934 22.0821 21.8934 22.5133C21.8934 22.923 21.9796 23.0092 22.2384 23.0092C22.6912 23.0092 23.0578 22.923 23.0793 22.7289C23.1871 21.9527 23.3165 21.4568 23.7477 20.8727C24.0064 20.5493 24.4592 20.1396 24.8258 19.8162C25.5157 19.2557 25.7529 18.9322 25.99 18.1345C26.0979 17.7679 26.2272 17.4229 26.3997 17.0995C26.8094 16.3449 27.5425 15.4824 28.6872 15.4824C29.0537 15.4824 29.3555 15.5903 29.5496 15.8921C29.6574 16.0646 29.7005 16.3018 29.7005 16.4743C29.7005 16.8437 29.4465 17.3499 29.3104 17.621L29.2908 17.6602L29.2165 17.8184C28.7397 18.8318 28.0402 20.3186 28.0402 22.0175C28.0402 25.9219 26.6603 27.8644 25.5804 28.8562C24.5239 29.8479 22.8617 30.7123 20.8997 30.7123C19.4982 30.7123 18.0517 30.3027 16.8658 29.5265C15.2393 28.4491 14.211 26.7697 13.1764 25.0798L13.1123 24.9751C12.2714 23.5737 11.6893 22.4721 10.7817 20.3376C10.2701 19.1007 9.79383 17.8933 9.38416 16.5781ZM16.3092 8.20862C15.6839 8.20862 14.9293 8.53207 14.9293 9.35136C14.9293 9.89039 15.0802 10.6881 15.2312 11.333C15.4188 11.7877 15.4931 12.1168 15.6429 12.781C15.6998 13.0329 15.7675 13.3331 15.8565 13.7067C16.0505 14.5064 16.2877 15.1963 16.5249 15.8C16.8051 16.5351 17.1286 17.1603 17.5813 18.0012C17.797 18.4109 17.9047 18.4109 18.4222 18.1306C18.8319 17.915 19.4356 17.6562 19.8884 17.5053C19.1121 15.8236 18.4653 14.4202 18.1419 13.2343C18.0556 12.8894 17.7538 11.5075 17.6676 10.9038C17.6029 10.3001 17.5381 9.78257 17.3872 9.222C17.2147 8.53201 16.9776 8.20862 16.3092 8.20862Z" fill="#FFAD00" fill-opacity="0.45"/>
<path fill-rule="evenodd" clip-rule="evenodd" d="M8.15519 16.9662C8.56486 18.3245 9.06075 19.5986 9.59978 20.8276C10.5269 23.0288 11.1522 24.1931 12.0166 25.6377L12.1124 25.7941C13.144 27.4802 14.2971 29.3649 16.1582 30.5987C17.5597 31.5258 19.265 32.0001 20.9036 32.0001C23.2126 32.0001 25.1962 30.9867 26.4702 29.799C27.7208 28.6347 29.3398 26.3904 29.3398 22.0115C29.3398 20.5888 29.9337 19.3559 30.4172 18.3523L30.5041 18.1717C30.5041 18.1502 30.5256 18.1071 30.5687 18.0208C30.7628 17.5896 30.9999 17.0291 30.9999 16.4684C30.9999 16.0588 30.8921 15.5844 30.6119 15.1748C30.1807 14.4417 29.4045 14.183 28.691 14.183C27.0308 14.183 25.8861 15.3473 25.3039 16.5351L25.1099 16.9232C24.8727 16.5782 24.6355 16.2117 24.4415 15.8883C23.8378 14.8318 23.4928 14.1203 23.1909 13.2128C22.9538 12.5012 22.7597 11.682 22.6304 11.0116C22.2638 8.89665 21.6601 8.20672 20.6664 7.94801C19.9333 7.75397 19.0709 7.90487 18.4436 8.31454C18.0144 7.3443 17.2813 6.91309 16.3091 6.91309C14.9292 6.91309 13.6767 7.81865 13.6767 9.35143C13.6767 9.51519 13.692 9.67895 13.7098 9.86865L13.7198 9.97668C13.5473 9.93354 13.3533 9.912 13.1593 9.912C11.6715 9.912 10.57 10.9469 10.57 12.3503C10.57 12.6737 10.6131 13.0403 10.7209 13.4715C10.5915 13.4499 10.4621 13.4499 10.3328 13.4499C9.59972 13.4931 8.93134 13.7733 8.45502 14.3555C7.98269 14.916 7.78865 15.7784 8.15519 16.9662ZM9.38416 16.5781C9.19012 15.9529 9.21166 15.4785 9.44883 15.1767C9.68601 14.8963 10.0094 14.767 10.3975 14.7454C11.0659 14.7239 11.3246 15.1982 11.7128 16.4272C11.95 17.2034 12.4243 18.3265 12.7046 18.9518C13.0711 19.7064 13.5886 20.7198 13.8257 21.0668C14.0197 21.3686 14.1922 21.4549 14.3863 21.4549C14.7313 21.4549 14.99 21.2608 14.99 20.9158C14.99 20.7411 14.8327 20.4615 14.7226 20.2659L14.6881 20.2043C14.649 20.1304 14.6012 20.0417 14.5474 19.9419C14.3342 19.5467 14.0279 18.9787 13.8041 18.4794C13.5022 17.7895 13.1573 16.927 12.877 16.1489C12.7045 15.6962 12.5105 15.0493 12.3164 14.4025C12.0146 13.4107 11.8637 12.807 11.8637 12.3522C11.8637 11.6623 12.3812 11.2095 13.1573 11.2095C13.7179 11.2095 14.0844 11.4898 14.3216 12.5031C14.5156 13.4302 14.8606 14.9414 15.3565 16.1273C15.6799 16.9035 16.1543 17.9404 16.4346 18.4578C16.4909 18.5564 16.5496 18.6504 16.603 18.7361C16.7131 18.9126 16.8011 19.0536 16.8011 19.1262C16.8011 19.2222 16.6879 19.3529 16.5444 19.5186C16.4622 19.6135 16.37 19.7199 16.2836 19.8378C16.1327 20.0318 16.068 20.1612 16.068 20.3121C16.068 20.4415 16.1542 20.5708 16.2836 20.7433C16.413 20.9158 16.5423 21.0883 16.6933 21.0883C16.8011 21.0883 16.8658 21.0452 16.9305 20.959C17.5989 20.1181 18.3319 19.536 19.1748 19.0597C20.1666 18.4991 21.1819 18.2188 21.9796 18.0463C22.3677 17.9601 22.4755 17.8738 22.4755 17.6582C22.4755 17.3995 22.2815 17.2485 22.0228 17.227C21.8642 17.2094 21.7201 17.2205 21.508 17.237C21.4605 17.2406 21.4096 17.2446 21.3544 17.2485C21.1388 17.2701 21.031 17.1623 20.9016 16.882C20.8413 16.7546 20.7721 16.6136 20.6965 16.4596C20.2862 15.6235 19.6885 14.4058 19.3062 12.9128C19.1121 12.1582 18.9396 11.3604 18.8318 10.3235C18.7671 9.84918 18.8533 9.67669 19.0905 9.46111C19.3924 9.20239 19.9314 9.09458 20.3411 9.20239C20.837 9.33175 21.0957 9.71988 21.3545 11.2311C21.4838 11.9426 21.6995 12.8482 21.9582 13.6263C22.2816 14.618 22.6912 15.4394 23.3165 16.539C23.6615 17.1427 24.0927 17.7679 24.5454 18.3736C24.4592 18.6323 24.3083 18.8048 23.8124 19.2145C23.3165 19.6242 22.8206 20.0554 22.3678 20.8531C22.0444 21.4353 21.8934 22.0821 21.8934 22.5133C21.8934 22.923 21.9796 23.0092 22.2384 23.0092C22.6912 23.0092 23.0578 22.923 23.0793 22.7289C23.1871 21.9527 23.3165 21.4568 23.7477 20.8727C24.0064 20.5493 24.4592 20.1396 24.8258 19.8162C25.5157 19.2557 25.7529 18.9322 25.99 18.1345C26.0979 17.7679 26.2272 17.4229 26.3997 17.0995C26.8094 16.3449 27.5425 15.4824 28.6872 15.4824C29.0537 15.4824 29.3555 15.5903 29.5496 15.8921C29.6574 16.0646 29.7005 16.3018 29.7005 16.4743C29.7005 16.8437 29.4465 17.3499 29.3104 17.621L29.2908 17.6602L29.2165 17.8184C28.7397 18.8318 28.0402 20.3186 28.0402 22.0175C28.0402 25.9219 26.6603 27.8644 25.5804 28.8562C24.5239 29.8479 22.8617 30.7123 20.8997 30.7123C19.4982 30.7123 18.0517 30.3027 16.8658 29.5265C15.2393 28.4491 14.211 26.7697 13.1764 25.0798L13.1123 24.9751C12.2714 23.5737 11.6893 22.4721 10.7817 20.3376C10.2701 19.1007 9.79383 17.8933 9.38416 16.5781ZM16.3092 8.20862C15.6839 8.20862 14.9293 8.53207 14.9293 9.35136C14.9293 9.89039 15.0802 10.6881 15.2312 11.333C15.4188 11.7877 15.4931 12.1168 15.6429 12.781C15.6998 13.0329 15.7675 13.3331 15.8565 13.7067C16.0505 14.5064 16.2877 15.1963 16.5249 15.8C16.8051 16.5351 17.1286 17.1603 17.5813 18.0012C17.797 18.4109 17.9047 18.4109 18.4222 18.1306C18.8319 17.915 19.4356 17.6562 19.8884 17.5053C19.1121 15.8236 18.4653 14.4202 18.1419 13.2343C18.0556 12.8894 17.7538 11.5075 17.6676 10.9038C17.6029 10.3001 17.5381 9.78257 17.3872 9.222C17.2147 8.53201 16.9776 8.20862 16.3092 8.20862Z" fill="url(#paint2_radial_1163_203)" fill-opacity="0.8"/>
<path d="M20 0C8.9543 0 0 8.9543 0 20C0 31.0457 8.9543 40 20 40C31.0457 40 40 31.0457 40 20C40 8.9543 31.0457 0 20 0ZM20 38.1818C9.95844 38.1818 1.8182 30.0416 1.8182 20C1.8182 9.95844 9.95844 1.8182 20 1.8182C30.0416 1.8182 38.1818 9.95844 38.1818 20C38.1818 30.0416 30.0416 38.1818 20 38.1818Z" fill="url(#paint3_linear_1163_203)"/>
<path d="M20 0C8.9543 0 0 8.9543 0 20C0 31.0457 8.9543 40 20 40C31.0457 40 40 31.0457 40 20C40 8.9543 31.0457 0 20 0ZM20 38.1818C9.95844 38.1818 1.8182 30.0416 1.8182 20C1.8182 9.95844 9.95844 1.8182 20 1.8182C30.0416 1.8182 38.1818 9.95844 38.1818 20C38.1818 30.0416 30.0416 38.1818 20 38.1818Z" fill="url(#paint4_radial_1163_203)" fill-opacity="0.8"/>
<path d="M20 0C8.9543 0 0 8.9543 0 20C0 31.0457 8.9543 40 20 40C31.0457 40 40 31.0457 40 20C40 8.9543 31.0457 0 20 0ZM20 38.1818C9.95844 38.1818 1.8182 30.0416 1.8182 20C1.8182 9.95844 9.95844 1.8182 20 1.8182C30.0416 1.8182 38.1818 9.95844 38.1818 20C38.1818 30.0416 30.0416 38.1818 20 38.1818Z" fill="#FFAD00" fill-opacity="0.45"/>
<path d="M20 0C8.9543 0 0 8.9543 0 20C0 31.0457 8.9543 40 20 40C31.0457 40 40 31.0457 40 20C40 8.9543 31.0457 0 20 0ZM20 38.1818C9.95844 38.1818 1.8182 30.0416 1.8182 20C1.8182 9.95844 9.95844 1.8182 20 1.8182C30.0416 1.8182 38.1818 9.95844 38.1818 20C38.1818 30.0416 30.0416 38.1818 20 38.1818Z" fill="url(#paint5_radial_1163_203)" fill-opacity="0.8"/>
<defs>
<linearGradient id="paint0_linear_1163_203" x1="7.96411" y1="6.91309" x2="36.8518" y2="12.7914" gradientUnits="userSpaceOnUse">
<stop offset="0.208333" stop-color="white"/>
<stop offset="0.369792" stop-color="#59636C" stop-opacity="0.65"/>
<stop offset="0.66093" stop-color="white"/>
<stop offset="0.78266" stop-color="#486177" stop-opacity="0.55"/>
<stop offset="1" stop-color="#67737E" stop-opacity="0.95"/>
</linearGradient>
<radialGradient id="paint1_radial_1163_203" cx="0" cy="0" r="1" gradientUnits="userSpaceOnUse" gradientTransform="translate(7.96411 6.91309) rotate(65.4893) scale(27.5717 10.8648)">
<stop stop-color="white"/>
<stop offset="1" stop-color="#F8B017" stop-opacity="0.2"/>
</radialGradient>
<radialGradient id="paint2_radial_1163_203" cx="0" cy="0" r="1" gradientUnits="userSpaceOnUse" gradientTransform="translate(7.96411 6.91309) rotate(63.1326) scale(28.1227 15.4034)">
<stop offset="0.28423" stop-color="white" stop-opacity="0.75"/>
<stop offset="0.98979" stop-color="#F8B017" stop-opacity="0.1"/>
</radialGradient>
<linearGradient id="paint3_linear_1163_203" x1="0" y1="0" x2="49.7931" y2="11.0345" gradientUnits="userSpaceOnUse">
<stop offset="0.208333" stop-color="white"/>
<stop offset="0.369792" stop-color="#59636C" stop-opacity="0.65"/>
<stop offset="0.66093" stop-color="white"/>
<stop offset="0.78266" stop-color="#486177" stop-opacity="0.55"/>
<stop offset="1" stop-color="#67737E" stop-opacity="0.95"/>
</linearGradient>
<radialGradient id="paint4_radial_1163_203" cx="0" cy="0" r="1" gradientUnits="userSpaceOnUse" gradientTransform="rotate(63.5932) scale(44.6598 18.5709)">
<stop stop-color="white"/>
<stop offset="1" stop-color="#F8B017" stop-opacity="0.2"/>
</radialGradient>
<radialGradient id="paint5_radial_1163_203" cx="0" cy="0" r="1" gradientUnits="userSpaceOnUse" gradientTransform="rotate(61.1134) scale(45.6841 26.2528)">
<stop offset="0.28423" stop-color="white" stop-opacity="0.75"/>
<stop offset="0.98979" stop-color="#F8B017" stop-opacity="0.1"/>
</radialGradient>
</defs>
</svg>
