<svg width="50" height="60" viewBox="0 0 50 60" fill="none" xmlns="http://www.w3.org/2000/svg">
<path fill-rule="evenodd" clip-rule="evenodd" d="M10 22H40V25H10V22ZM40 32H10V29H40V32ZM10 36H40V39H10V36ZM19 46H10V43H19V46ZM37.099 14C39.099 14 50 14 50 14L34 0V11C34 13 35.099 14 37.099 14ZM50 17C50 17 42.5 17 38 17C33.5 17 31 14.5 31 10C31 5.5 31 0 31 0H2.72764e-07C2.72764e-07 18.2516 1.36383e-07 39.8008 1.36383e-07 56.5C-0.000224748 57.4358 0.277639 58.3381 1 59C1.72236 59.6619 2.47818 59.9998 3.5 60H50C50 44.0667 50 31.7815 50 17Z" fill="black"/>
</svg>
