<svg width="40" height="40" viewBox="0 0 40 40" fill="none" xmlns="http://www.w3.org/2000/svg">
<path d="M18.182 15.4545V17.2727H16.3638V20H18.182V28.1818H21.8183V20H24.2365L24.5456 17.2727H21.8183V15.6818C21.8183 14.9455 21.891 14.5545 23.0274 14.5545H24.5456V11.8181H22.1092C19.2002 11.8182 18.182 13.1818 18.182 15.4545Z" fill="url(#paint0_linear_1163_200)"/>
<path d="M18.182 15.4545V17.2727H16.3638V20H18.182V28.1818H21.8183V20H24.2365L24.5456 17.2727H21.8183V15.6818C21.8183 14.9455 21.891 14.5545 23.0274 14.5545H24.5456V11.8181H22.1092C19.2002 11.8182 18.182 13.1818 18.182 15.4545Z" fill="url(#paint1_radial_1163_200)" fill-opacity="0.8"/>
<path d="M18.182 15.4545V17.2727H16.3638V20H18.182V28.1818H21.8183V20H24.2365L24.5456 17.2727H21.8183V15.6818C21.8183 14.9455 21.891 14.5545 23.0274 14.5545H24.5456V11.8181H22.1092C19.2002 11.8182 18.182 13.1818 18.182 15.4545Z" fill="#FFAD00" fill-opacity="0.45"/>
<path d="M18.182 15.4545V17.2727H16.3638V20H18.182V28.1818H21.8183V20H24.2365L24.5456 17.2727H21.8183V15.6818C21.8183 14.9455 21.891 14.5545 23.0274 14.5545H24.5456V11.8181H22.1092C19.2002 11.8182 18.182 13.1818 18.182 15.4545Z" fill="url(#paint2_radial_1163_200)" fill-opacity="0.8"/>
<path d="M20 0C8.9543 0 0 8.9543 0 20C0 31.0457 8.9543 40 20 40C31.0457 40 40 31.0457 40 20C40 8.9543 31.0457 0 20 0ZM20 38.1818C9.95844 38.1818 1.8182 30.0416 1.8182 20C1.8182 9.95844 9.95844 1.8182 20 1.8182C30.0416 1.8182 38.1818 9.95844 38.1818 20C38.1818 30.0416 30.0416 38.1818 20 38.1818Z" fill="url(#paint3_linear_1163_200)"/>
<path d="M20 0C8.9543 0 0 8.9543 0 20C0 31.0457 8.9543 40 20 40C31.0457 40 40 31.0457 40 20C40 8.9543 31.0457 0 20 0ZM20 38.1818C9.95844 38.1818 1.8182 30.0416 1.8182 20C1.8182 9.95844 9.95844 1.8182 20 1.8182C30.0416 1.8182 38.1818 9.95844 38.1818 20C38.1818 30.0416 30.0416 38.1818 20 38.1818Z" fill="url(#paint4_radial_1163_200)" fill-opacity="0.8"/>
<path d="M20 0C8.9543 0 0 8.9543 0 20C0 31.0457 8.9543 40 20 40C31.0457 40 40 31.0457 40 20C40 8.9543 31.0457 0 20 0ZM20 38.1818C9.95844 38.1818 1.8182 30.0416 1.8182 20C1.8182 9.95844 9.95844 1.8182 20 1.8182C30.0416 1.8182 38.1818 9.95844 38.1818 20C38.1818 30.0416 30.0416 38.1818 20 38.1818Z" fill="#FFAD00" fill-opacity="0.45"/>
<path d="M20 0C8.9543 0 0 8.9543 0 20C0 31.0457 8.9543 40 20 40C31.0457 40 40 31.0457 40 20C40 8.9543 31.0457 0 20 0ZM20 38.1818C9.95844 38.1818 1.8182 30.0416 1.8182 20C1.8182 9.95844 9.95844 1.8182 20 1.8182C30.0416 1.8182 38.1818 9.95844 38.1818 20C38.1818 30.0416 30.0416 38.1818 20 38.1818Z" fill="url(#paint5_radial_1163_200)" fill-opacity="0.8"/>
<defs>
<linearGradient id="paint0_linear_1163_200" x1="16.3638" y1="11.8181" x2="26.9193" y2="12.9877" gradientUnits="userSpaceOnUse">
<stop offset="0.208333" stop-color="white"/>
<stop offset="0.369792" stop-color="#59636C" stop-opacity="0.65"/>
<stop offset="0.66093" stop-color="white"/>
<stop offset="0.78266" stop-color="#486177" stop-opacity="0.55"/>
<stop offset="1" stop-color="#67737E" stop-opacity="0.95"/>
</linearGradient>
<radialGradient id="paint1_radial_1163_200" cx="0" cy="0" r="1" gradientUnits="userSpaceOnUse" gradientTransform="translate(16.3638 11.8181) rotate(76.0568) scale(16.8605 4.11614)">
<stop stop-color="white"/>
<stop offset="1" stop-color="#F8B017" stop-opacity="0.2"/>
</radialGradient>
<radialGradient id="paint2_radial_1163_200" cx="0" cy="0" r="1" gradientUnits="userSpaceOnUse" gradientTransform="translate(16.3638 11.8181) rotate(74.5779) scale(16.9749 5.91211)">
<stop offset="0.28423" stop-color="white" stop-opacity="0.75"/>
<stop offset="0.98979" stop-color="#F8B017" stop-opacity="0.1"/>
</radialGradient>
<linearGradient id="paint3_linear_1163_200" x1="0" y1="0" x2="49.7931" y2="11.0345" gradientUnits="userSpaceOnUse">
<stop offset="0.208333" stop-color="white"/>
<stop offset="0.369792" stop-color="#59636C" stop-opacity="0.65"/>
<stop offset="0.66093" stop-color="white"/>
<stop offset="0.78266" stop-color="#486177" stop-opacity="0.55"/>
<stop offset="1" stop-color="#67737E" stop-opacity="0.95"/>
</linearGradient>
<radialGradient id="paint4_radial_1163_200" cx="0" cy="0" r="1" gradientUnits="userSpaceOnUse" gradientTransform="rotate(63.5932) scale(44.6598 18.5709)">
<stop stop-color="white"/>
<stop offset="1" stop-color="#F8B017" stop-opacity="0.2"/>
</radialGradient>
<radialGradient id="paint5_radial_1163_200" cx="0" cy="0" r="1" gradientUnits="userSpaceOnUse" gradientTransform="rotate(61.1134) scale(45.6841 26.2528)">
<stop offset="0.28423" stop-color="white" stop-opacity="0.75"/>
<stop offset="0.98979" stop-color="#F8B017" stop-opacity="0.1"/>
</radialGradient>
</defs>
</svg>
