<svg width="40" height="40" viewBox="0 0 40 40" fill="none" xmlns="http://www.w3.org/2000/svg">
<path d="M20.0003 10.042C14.5093 10.042 10.042 14.5092 10.042 20.0001C10.042 25.4911 14.5093 29.9583 20.0003 29.9583C25.4914 29.9583 29.9587 25.4911 29.9587 20.0001C29.9587 14.5092 25.4914 10.042 20.0003 10.042ZM20.0003 27.6145C15.8017 27.6145 12.3857 24.1987 12.3857 20.0001C12.3857 15.8015 15.8017 12.3857 20.0003 12.3857C24.1991 12.3857 27.615 15.8015 27.615 20.0001C27.615 24.1987 24.1991 27.6145 20.0003 27.6145Z" fill="url(#paint0_linear_1163_206)"/>
<path d="M20.0003 10.042C14.5093 10.042 10.042 14.5092 10.042 20.0001C10.042 25.4911 14.5093 29.9583 20.0003 29.9583C25.4914 29.9583 29.9587 25.4911 29.9587 20.0001C29.9587 14.5092 25.4914 10.042 20.0003 10.042ZM20.0003 27.6145C15.8017 27.6145 12.3857 24.1987 12.3857 20.0001C12.3857 15.8015 15.8017 12.3857 20.0003 12.3857C24.1991 12.3857 27.615 15.8015 27.615 20.0001C27.615 24.1987 24.1991 27.6145 20.0003 27.6145Z" fill="url(#paint1_radial_1163_206)" fill-opacity="0.8"/>
<path d="M20.0003 10.042C14.5093 10.042 10.042 14.5092 10.042 20.0001C10.042 25.4911 14.5093 29.9583 20.0003 29.9583C25.4914 29.9583 29.9587 25.4911 29.9587 20.0001C29.9587 14.5092 25.4914 10.042 20.0003 10.042ZM20.0003 27.6145C15.8017 27.6145 12.3857 24.1987 12.3857 20.0001C12.3857 15.8015 15.8017 12.3857 20.0003 12.3857C24.1991 12.3857 27.615 15.8015 27.615 20.0001C27.615 24.1987 24.1991 27.6145 20.0003 27.6145Z" fill="#FFAD00" fill-opacity="0.45"/>
<path d="M20.0003 10.042C14.5093 10.042 10.042 14.5092 10.042 20.0001C10.042 25.4911 14.5093 29.9583 20.0003 29.9583C25.4914 29.9583 29.9587 25.4911 29.9587 20.0001C29.9587 14.5092 25.4914 10.042 20.0003 10.042ZM20.0003 27.6145C15.8017 27.6145 12.3857 24.1987 12.3857 20.0001C12.3857 15.8015 15.8017 12.3857 20.0003 12.3857C24.1991 12.3857 27.615 15.8015 27.615 20.0001C27.615 24.1987 24.1991 27.6145 20.0003 27.6145Z" fill="url(#paint2_radial_1163_206)" fill-opacity="0.8"/>
<path d="M29.4141 0H10.5859C4.74883 0 0 4.74883 0 10.5859V29.4141C0 35.2512 4.74883 40 10.5859 40H29.4141C35.2512 40 40 35.2512 40 29.4141V10.5859C40 4.74883 35.2512 0 29.4141 0ZM37.8667 29.4141C37.8667 33.9588 33.9588 37.8667 29.4141 37.8667H10.5859C6.04117 37.8667 2.13333 33.9588 2.13333 29.4141V10.5859C2.13333 6.04117 6.04117 2.13333 10.5859 2.13333H29.4141C33.9588 2.13333 37.8667 6.04117 37.8667 10.5859V29.4141Z" fill="url(#paint3_linear_1163_206)"/>
<path d="M29.4141 0H10.5859C4.74883 0 0 4.74883 0 10.5859V29.4141C0 35.2512 4.74883 40 10.5859 40H29.4141C35.2512 40 40 35.2512 40 29.4141V10.5859C40 4.74883 35.2512 0 29.4141 0ZM37.8667 29.4141C37.8667 33.9588 33.9588 37.8667 29.4141 37.8667H10.5859C6.04117 37.8667 2.13333 33.9588 2.13333 29.4141V10.5859C2.13333 6.04117 6.04117 2.13333 10.5859 2.13333H29.4141C33.9588 2.13333 37.8667 6.04117 37.8667 10.5859V29.4141Z" fill="url(#paint4_radial_1163_206)" fill-opacity="0.8"/>
<path d="M29.4141 0H10.5859C4.74883 0 0 4.74883 0 10.5859V29.4141C0 35.2512 4.74883 40 10.5859 40H29.4141C35.2512 40 40 35.2512 40 29.4141V10.5859C40 4.74883 35.2512 0 29.4141 0ZM37.8667 29.4141C37.8667 33.9588 33.9588 37.8667 29.4141 37.8667H10.5859C6.04117 37.8667 2.13333 33.9588 2.13333 29.4141V10.5859C2.13333 6.04117 6.04117 2.13333 10.5859 2.13333H29.4141C33.9588 2.13333 37.8667 6.04117 37.8667 10.5859V29.4141Z" fill="#FFAD00" fill-opacity="0.45"/>
<path d="M29.4141 0H10.5859C4.74883 0 0 4.74883 0 10.5859V29.4141C0 35.2512 4.74883 40 10.5859 40H29.4141C35.2512 40 40 35.2512 40 29.4141V10.5859C40 4.74883 35.2512 0 29.4141 0ZM37.8667 29.4141C37.8667 33.9588 33.9588 37.8667 29.4141 37.8667H10.5859C6.04117 37.8667 2.13333 33.9588 2.13333 29.4141V10.5859C2.13333 6.04117 6.04117 2.13333 10.5859 2.13333H29.4141C33.9588 2.13333 37.8667 6.04117 37.8667 10.5859V29.4141Z" fill="url(#paint5_radial_1163_206)" fill-opacity="0.8"/>
<path d="M31.1406 7.6875C30.832 7.6875 30.5305 7.8125 30.3125 8.03125C30.0937 8.24922 29.9688 8.55078 29.9688 8.85937C29.9688 9.16796 30.0938 9.47031 30.3125 9.68828C30.5305 9.90624 30.832 10.0312 31.1406 10.0312C31.4493 10.0312 31.7516 9.90624 31.9695 9.68828C32.1875 9.47031 32.3125 9.16796 32.3125 8.85937C32.3125 8.55156 32.1875 8.24922 31.9695 8.03125C31.7516 7.8125 31.4492 7.6875 31.1406 7.6875Z" fill="url(#paint6_linear_1163_206)"/>
<path d="M31.1406 7.6875C30.832 7.6875 30.5305 7.8125 30.3125 8.03125C30.0937 8.24922 29.9688 8.55078 29.9688 8.85937C29.9688 9.16796 30.0938 9.47031 30.3125 9.68828C30.5305 9.90624 30.832 10.0312 31.1406 10.0312C31.4493 10.0312 31.7516 9.90624 31.9695 9.68828C32.1875 9.47031 32.3125 9.16796 32.3125 8.85937C32.3125 8.55156 32.1875 8.24922 31.9695 8.03125C31.7516 7.8125 31.4492 7.6875 31.1406 7.6875Z" fill="url(#paint7_radial_1163_206)" fill-opacity="0.8"/>
<path d="M31.1406 7.6875C30.832 7.6875 30.5305 7.8125 30.3125 8.03125C30.0937 8.24922 29.9688 8.55078 29.9688 8.85937C29.9688 9.16796 30.0938 9.47031 30.3125 9.68828C30.5305 9.90624 30.832 10.0312 31.1406 10.0312C31.4493 10.0312 31.7516 9.90624 31.9695 9.68828C32.1875 9.47031 32.3125 9.16796 32.3125 8.85937C32.3125 8.55156 32.1875 8.24922 31.9695 8.03125C31.7516 7.8125 31.4492 7.6875 31.1406 7.6875Z" fill="#FFAD00" fill-opacity="0.45"/>
<path d="M31.1406 7.6875C30.832 7.6875 30.5305 7.8125 30.3125 8.03125C30.0937 8.24922 29.9688 8.55078 29.9688 8.85937C29.9688 9.16796 30.0938 9.47031 30.3125 9.68828C30.5305 9.90624 30.832 10.0312 31.1406 10.0312C31.4493 10.0312 31.7516 9.90624 31.9695 9.68828C32.1875 9.47031 32.3125 9.16796 32.3125 8.85937C32.3125 8.55156 32.1875 8.24922 31.9695 8.03125C31.7516 7.8125 31.4492 7.6875 31.1406 7.6875Z" fill="url(#paint8_radial_1163_206)" fill-opacity="0.8"/>
<defs>
<linearGradient id="paint0_linear_1163_206" x1="10.042" y1="10.042" x2="34.8348" y2="15.5364" gradientUnits="userSpaceOnUse">
<stop offset="0.208333" stop-color="white"/>
<stop offset="0.369792" stop-color="#59636C" stop-opacity="0.65"/>
<stop offset="0.66093" stop-color="white"/>
<stop offset="0.78266" stop-color="#486177" stop-opacity="0.55"/>
<stop offset="1" stop-color="#67737E" stop-opacity="0.95"/>
</linearGradient>
<radialGradient id="paint1_radial_1163_206" cx="0" cy="0" r="1" gradientUnits="userSpaceOnUse" gradientTransform="translate(10.042 10.042) rotate(63.5927) scale(22.2365 9.24675)">
<stop stop-color="white"/>
<stop offset="1" stop-color="#F8B017" stop-opacity="0.2"/>
</radialGradient>
<radialGradient id="paint2_radial_1163_206" cx="0" cy="0" r="1" gradientUnits="userSpaceOnUse" gradientTransform="translate(10.042 10.042) rotate(61.1129) scale(22.7465 13.0716)">
<stop offset="0.28423" stop-color="white" stop-opacity="0.75"/>
<stop offset="0.98979" stop-color="#F8B017" stop-opacity="0.1"/>
</radialGradient>
<linearGradient id="paint3_linear_1163_206" x1="0" y1="0" x2="49.7931" y2="11.0345" gradientUnits="userSpaceOnUse">
<stop offset="0.208333" stop-color="white"/>
<stop offset="0.369792" stop-color="#59636C" stop-opacity="0.65"/>
<stop offset="0.66093" stop-color="white"/>
<stop offset="0.78266" stop-color="#486177" stop-opacity="0.55"/>
<stop offset="1" stop-color="#67737E" stop-opacity="0.95"/>
</linearGradient>
<radialGradient id="paint4_radial_1163_206" cx="0" cy="0" r="1" gradientUnits="userSpaceOnUse" gradientTransform="rotate(63.5932) scale(44.6598 18.5709)">
<stop stop-color="white"/>
<stop offset="1" stop-color="#F8B017" stop-opacity="0.2"/>
</radialGradient>
<radialGradient id="paint5_radial_1163_206" cx="0" cy="0" r="1" gradientUnits="userSpaceOnUse" gradientTransform="rotate(61.1134) scale(45.6841 26.2528)">
<stop offset="0.28423" stop-color="white" stop-opacity="0.75"/>
<stop offset="0.98979" stop-color="#F8B017" stop-opacity="0.1"/>
</radialGradient>
<linearGradient id="paint6_linear_1163_206" x1="29.9688" y1="7.6875" x2="32.8863" y2="8.33405" gradientUnits="userSpaceOnUse">
<stop offset="0.208333" stop-color="white"/>
<stop offset="0.369792" stop-color="#59636C" stop-opacity="0.65"/>
<stop offset="0.66093" stop-color="white"/>
<stop offset="0.78266" stop-color="#486177" stop-opacity="0.55"/>
<stop offset="1" stop-color="#67737E" stop-opacity="0.95"/>
</linearGradient>
<radialGradient id="paint7_radial_1163_206" cx="0" cy="0" r="1" gradientUnits="userSpaceOnUse" gradientTransform="translate(29.9688 7.6875) rotate(63.5932) scale(2.61678 1.08814)">
<stop stop-color="white"/>
<stop offset="1" stop-color="#F8B017" stop-opacity="0.2"/>
</radialGradient>
<radialGradient id="paint8_radial_1163_206" cx="0" cy="0" r="1" gradientUnits="userSpaceOnUse" gradientTransform="translate(29.9688 7.6875) rotate(61.1133) scale(2.6768 1.53825)">
<stop offset="0.28423" stop-color="white" stop-opacity="0.75"/>
<stop offset="0.98979" stop-color="#F8B017" stop-opacity="0.1"/>
</radialGradient>
</defs>
</svg>
