<svg width="40" height="40" viewBox="0 0 40 40" fill="none" xmlns="http://www.w3.org/2000/svg">
<g clip-path="url(#clip0_1163_216)">
<path d="M38.4009 23.9004C39.0161 20.9833 38.9313 17.939 38.1509 15.0607C37.297 11.9114 35.6194 9.02052 33.2994 6.70052C30.9794 4.3806 28.0885 2.70287 24.9392 1.84904C22.0609 1.06857 19.0166 0.983961 16.0993 1.59904C14.1895 0.404118 11.9245 -0.149242 9.66032 0.0352895C7.17977 0.237555 4.84329 1.31943 3.0811 3.08162C1.31892 4.8438 0.237119 7.18021 0.0348529 9.66076C-0.149835 11.925 0.403525 14.1898 1.5986 16.0997C0.983447 19.0169 1.06821 22.0614 1.8486 24.9397C2.70243 28.089 4.38009 30.9799 6.70009 33.2998C9.02009 35.6197 11.9109 37.2974 15.0602 38.1513C17.9385 38.9319 20.9829 39.0165 23.9 38.4014C25.5692 39.4459 27.5095 40.0005 29.4835 40.0004C29.7681 40.0004 30.0538 39.9889 30.3392 39.9657C32.8199 39.7634 35.1567 38.6815 36.9188 36.9193C38.681 35.157 39.7629 32.8203 39.9652 30.3397C40.1498 28.0754 39.5961 25.8103 38.4009 23.9004ZM35.5001 35.5C32.7218 38.2783 27.8153 38.9807 24.6075 36.7239C24.3984 36.5769 24.151 36.5 23.9 36.5C23.8037 36.5 23.7068 36.5113 23.6116 36.5344C18.0208 37.8839 12.0611 36.0609 8.00012 32C3.93911 27.939 2.15051 21.5909 3.50012 16C3.58309 15.6562 3.51395 15.2934 3.31059 15.0041C1.05426 11.7963 1.72192 7.27812 4.50012 4.5C7.27825 1.72187 12.2964 1.05398 15.5043 3.31047C15.7936 3.51383 16.1563 3.58305 16.5001 3.5C22.0911 2.15047 27.939 3.93891 32.0001 8C36.0611 12.0609 37.8497 18.3097 36.5001 23.9004C36.4172 24.2442 36.4863 24.6072 36.6897 24.8965C38.9465 28.1043 38.2785 32.7216 35.5001 35.5Z" fill="url(#paint0_linear_1163_216)"/>
<path d="M38.4009 23.9004C39.0161 20.9833 38.9313 17.939 38.1509 15.0607C37.297 11.9114 35.6194 9.02052 33.2994 6.70052C30.9794 4.3806 28.0885 2.70287 24.9392 1.84904C22.0609 1.06857 19.0166 0.983961 16.0993 1.59904C14.1895 0.404118 11.9245 -0.149242 9.66032 0.0352895C7.17977 0.237555 4.84329 1.31943 3.0811 3.08162C1.31892 4.8438 0.237119 7.18021 0.0348529 9.66076C-0.149835 11.925 0.403525 14.1898 1.5986 16.0997C0.983447 19.0169 1.06821 22.0614 1.8486 24.9397C2.70243 28.089 4.38009 30.9799 6.70009 33.2998C9.02009 35.6197 11.9109 37.2974 15.0602 38.1513C17.9385 38.9319 20.9829 39.0165 23.9 38.4014C25.5692 39.4459 27.5095 40.0005 29.4835 40.0004C29.7681 40.0004 30.0538 39.9889 30.3392 39.9657C32.8199 39.7634 35.1567 38.6815 36.9188 36.9193C38.681 35.157 39.7629 32.8203 39.9652 30.3397C40.1498 28.0754 39.5961 25.8103 38.4009 23.9004ZM35.5001 35.5C32.7218 38.2783 27.8153 38.9807 24.6075 36.7239C24.3984 36.5769 24.151 36.5 23.9 36.5C23.8037 36.5 23.7068 36.5113 23.6116 36.5344C18.0208 37.8839 12.0611 36.0609 8.00012 32C3.93911 27.939 2.15051 21.5909 3.50012 16C3.58309 15.6562 3.51395 15.2934 3.31059 15.0041C1.05426 11.7963 1.72192 7.27812 4.50012 4.5C7.27825 1.72187 12.2964 1.05398 15.5043 3.31047C15.7936 3.51383 16.1563 3.58305 16.5001 3.5C22.0911 2.15047 27.939 3.93891 32.0001 8C36.0611 12.0609 37.8497 18.3097 36.5001 23.9004C36.4172 24.2442 36.4863 24.6072 36.6897 24.8965C38.9465 28.1043 38.2785 32.7216 35.5001 35.5Z" fill="url(#paint1_radial_1163_216)" fill-opacity="0.8"/>
<path d="M38.4009 23.9004C39.0161 20.9833 38.9313 17.939 38.1509 15.0607C37.297 11.9114 35.6194 9.02052 33.2994 6.70052C30.9794 4.3806 28.0885 2.70287 24.9392 1.84904C22.0609 1.06857 19.0166 0.983961 16.0993 1.59904C14.1895 0.404118 11.9245 -0.149242 9.66032 0.0352895C7.17977 0.237555 4.84329 1.31943 3.0811 3.08162C1.31892 4.8438 0.237119 7.18021 0.0348529 9.66076C-0.149835 11.925 0.403525 14.1898 1.5986 16.0997C0.983447 19.0169 1.06821 22.0614 1.8486 24.9397C2.70243 28.089 4.38009 30.9799 6.70009 33.2998C9.02009 35.6197 11.9109 37.2974 15.0602 38.1513C17.9385 38.9319 20.9829 39.0165 23.9 38.4014C25.5692 39.4459 27.5095 40.0005 29.4835 40.0004C29.7681 40.0004 30.0538 39.9889 30.3392 39.9657C32.8199 39.7634 35.1567 38.6815 36.9188 36.9193C38.681 35.157 39.7629 32.8203 39.9652 30.3397C40.1498 28.0754 39.5961 25.8103 38.4009 23.9004ZM35.5001 35.5C32.7218 38.2783 27.8153 38.9807 24.6075 36.7239C24.3984 36.5769 24.151 36.5 23.9 36.5C23.8037 36.5 23.7068 36.5113 23.6116 36.5344C18.0208 37.8839 12.0611 36.0609 8.00012 32C3.93911 27.939 2.15051 21.5909 3.50012 16C3.58309 15.6562 3.51395 15.2934 3.31059 15.0041C1.05426 11.7963 1.72192 7.27812 4.50012 4.5C7.27825 1.72187 12.2964 1.05398 15.5043 3.31047C15.7936 3.51383 16.1563 3.58305 16.5001 3.5C22.0911 2.15047 27.939 3.93891 32.0001 8C36.0611 12.0609 37.8497 18.3097 36.5001 23.9004C36.4172 24.2442 36.4863 24.6072 36.6897 24.8965C38.9465 28.1043 38.2785 32.7216 35.5001 35.5Z" fill="#FFAD00" fill-opacity="0.45"/>
<path d="M38.4009 23.9004C39.0161 20.9833 38.9313 17.939 38.1509 15.0607C37.297 11.9114 35.6194 9.02052 33.2994 6.70052C30.9794 4.3806 28.0885 2.70287 24.9392 1.84904C22.0609 1.06857 19.0166 0.983961 16.0993 1.59904C14.1895 0.404118 11.9245 -0.149242 9.66032 0.0352895C7.17977 0.237555 4.84329 1.31943 3.0811 3.08162C1.31892 4.8438 0.237119 7.18021 0.0348529 9.66076C-0.149835 11.925 0.403525 14.1898 1.5986 16.0997C0.983447 19.0169 1.06821 22.0614 1.8486 24.9397C2.70243 28.089 4.38009 30.9799 6.70009 33.2998C9.02009 35.6197 11.9109 37.2974 15.0602 38.1513C17.9385 38.9319 20.9829 39.0165 23.9 38.4014C25.5692 39.4459 27.5095 40.0005 29.4835 40.0004C29.7681 40.0004 30.0538 39.9889 30.3392 39.9657C32.8199 39.7634 35.1567 38.6815 36.9188 36.9193C38.681 35.157 39.7629 32.8203 39.9652 30.3397C40.1498 28.0754 39.5961 25.8103 38.4009 23.9004ZM35.5001 35.5C32.7218 38.2783 27.8153 38.9807 24.6075 36.7239C24.3984 36.5769 24.151 36.5 23.9 36.5C23.8037 36.5 23.7068 36.5113 23.6116 36.5344C18.0208 37.8839 12.0611 36.0609 8.00012 32C3.93911 27.939 2.15051 21.5909 3.50012 16C3.58309 15.6562 3.51395 15.2934 3.31059 15.0041C1.05426 11.7963 1.72192 7.27812 4.50012 4.5C7.27825 1.72187 12.2964 1.05398 15.5043 3.31047C15.7936 3.51383 16.1563 3.58305 16.5001 3.5C22.0911 2.15047 27.939 3.93891 32.0001 8C36.0611 12.0609 37.8497 18.3097 36.5001 23.9004C36.4172 24.2442 36.4863 24.6072 36.6897 24.8965C38.9465 28.1043 38.2785 32.7216 35.5001 35.5Z" fill="url(#paint2_radial_1163_216)" fill-opacity="0.8"/>
<path d="M20.2301 18.6548C17.6908 17.7959 14.8128 16.8222 14.8128 15.3826C14.8128 13.5462 17.1882 11.9948 20.0001 11.9948C22.8119 11.9948 25.1874 13.5463 25.1874 15.3826C25.1874 15.3826 26.4999 15.3826 27.6464 15.3826C27.6464 13.743 26.7974 12.2292 25.2556 11.1197C23.8361 10.0983 21.9697 9.53589 20.0001 9.53589C18.0305 9.53589 16.1641 10.0984 14.7446 11.1197C13.2028 12.2291 12.3538 13.743 12.3538 15.3826C12.3538 16.8777 13.2123 18.1392 14.9053 19.1323C16.1831 19.8817 17.8399 20.4421 19.442 20.9841C22.2666 21.9396 25.1874 22.9276 25.1874 24.6171C25.1874 26.4535 22.8119 28.005 20.0001 28.005C17.1883 28.005 14.8128 26.4535 14.8128 24.6171C13.9999 24.6171 12.3538 24.6171 12.3538 24.6171C12.3538 26.2567 13.2027 27.7706 14.7446 28.88C16.1641 29.9014 18.0305 30.4639 20.0001 30.4639C21.9698 30.4639 23.8361 29.9014 25.2556 28.88C26.7974 27.7707 27.6464 26.2567 27.6464 24.6171C27.6465 21.1636 23.7063 19.8308 20.2301 18.6548Z" fill="url(#paint3_linear_1163_216)"/>
<path d="M20.2301 18.6548C17.6908 17.7959 14.8128 16.8222 14.8128 15.3826C14.8128 13.5462 17.1882 11.9948 20.0001 11.9948C22.8119 11.9948 25.1874 13.5463 25.1874 15.3826C25.1874 15.3826 26.4999 15.3826 27.6464 15.3826C27.6464 13.743 26.7974 12.2292 25.2556 11.1197C23.8361 10.0983 21.9697 9.53589 20.0001 9.53589C18.0305 9.53589 16.1641 10.0984 14.7446 11.1197C13.2028 12.2291 12.3538 13.743 12.3538 15.3826C12.3538 16.8777 13.2123 18.1392 14.9053 19.1323C16.1831 19.8817 17.8399 20.4421 19.442 20.9841C22.2666 21.9396 25.1874 22.9276 25.1874 24.6171C25.1874 26.4535 22.8119 28.005 20.0001 28.005C17.1883 28.005 14.8128 26.4535 14.8128 24.6171C13.9999 24.6171 12.3538 24.6171 12.3538 24.6171C12.3538 26.2567 13.2027 27.7706 14.7446 28.88C16.1641 29.9014 18.0305 30.4639 20.0001 30.4639C21.9698 30.4639 23.8361 29.9014 25.2556 28.88C26.7974 27.7707 27.6464 26.2567 27.6464 24.6171C27.6465 21.1636 23.7063 19.8308 20.2301 18.6548Z" fill="url(#paint4_radial_1163_216)" fill-opacity="0.8"/>
<path d="M20.2301 18.6548C17.6908 17.7959 14.8128 16.8222 14.8128 15.3826C14.8128 13.5462 17.1882 11.9948 20.0001 11.9948C22.8119 11.9948 25.1874 13.5463 25.1874 15.3826C25.1874 15.3826 26.4999 15.3826 27.6464 15.3826C27.6464 13.743 26.7974 12.2292 25.2556 11.1197C23.8361 10.0983 21.9697 9.53589 20.0001 9.53589C18.0305 9.53589 16.1641 10.0984 14.7446 11.1197C13.2028 12.2291 12.3538 13.743 12.3538 15.3826C12.3538 16.8777 13.2123 18.1392 14.9053 19.1323C16.1831 19.8817 17.8399 20.4421 19.442 20.9841C22.2666 21.9396 25.1874 22.9276 25.1874 24.6171C25.1874 26.4535 22.8119 28.005 20.0001 28.005C17.1883 28.005 14.8128 26.4535 14.8128 24.6171C13.9999 24.6171 12.3538 24.6171 12.3538 24.6171C12.3538 26.2567 13.2027 27.7706 14.7446 28.88C16.1641 29.9014 18.0305 30.4639 20.0001 30.4639C21.9698 30.4639 23.8361 29.9014 25.2556 28.88C26.7974 27.7707 27.6464 26.2567 27.6464 24.6171C27.6465 21.1636 23.7063 19.8308 20.2301 18.6548Z" fill="#FFAD00" fill-opacity="0.45"/>
<path d="M20.2301 18.6548C17.6908 17.7959 14.8128 16.8222 14.8128 15.3826C14.8128 13.5462 17.1882 11.9948 20.0001 11.9948C22.8119 11.9948 25.1874 13.5463 25.1874 15.3826C25.1874 15.3826 26.4999 15.3826 27.6464 15.3826C27.6464 13.743 26.7974 12.2292 25.2556 11.1197C23.8361 10.0983 21.9697 9.53589 20.0001 9.53589C18.0305 9.53589 16.1641 10.0984 14.7446 11.1197C13.2028 12.2291 12.3538 13.743 12.3538 15.3826C12.3538 16.8777 13.2123 18.1392 14.9053 19.1323C16.1831 19.8817 17.8399 20.4421 19.442 20.9841C22.2666 21.9396 25.1874 22.9276 25.1874 24.6171C25.1874 26.4535 22.8119 28.005 20.0001 28.005C17.1883 28.005 14.8128 26.4535 14.8128 24.6171C13.9999 24.6171 12.3538 24.6171 12.3538 24.6171C12.3538 26.2567 13.2027 27.7706 14.7446 28.88C16.1641 29.9014 18.0305 30.4639 20.0001 30.4639C21.9698 30.4639 23.8361 29.9014 25.2556 28.88C26.7974 27.7707 27.6464 26.2567 27.6464 24.6171C27.6465 21.1636 23.7063 19.8308 20.2301 18.6548Z" fill="url(#paint5_radial_1163_216)" fill-opacity="0.8"/>
</g>
<defs>
<linearGradient id="paint0_linear_1163_216" x1="0" y1="0.000488281" x2="49.7931" y2="11.035" gradientUnits="userSpaceOnUse">
<stop offset="0.208333" stop-color="white"/>
<stop offset="0.369792" stop-color="#59636C" stop-opacity="0.65"/>
<stop offset="0.66093" stop-color="white"/>
<stop offset="0.78266" stop-color="#486177" stop-opacity="0.55"/>
<stop offset="1" stop-color="#67737E" stop-opacity="0.95"/>
</linearGradient>
<radialGradient id="paint1_radial_1163_216" cx="0" cy="0" r="1" gradientUnits="userSpaceOnUse" gradientTransform="translate(0 0.000488281) rotate(63.5932) scale(44.6598 18.5709)">
<stop stop-color="white"/>
<stop offset="1" stop-color="#F8B017" stop-opacity="0.2"/>
</radialGradient>
<radialGradient id="paint2_radial_1163_216" cx="0" cy="0" r="1" gradientUnits="userSpaceOnUse" gradientTransform="translate(0 0.000488281) rotate(61.1134) scale(45.6841 26.2527)">
<stop offset="0.28423" stop-color="white" stop-opacity="0.75"/>
<stop offset="0.98979" stop-color="#F8B017" stop-opacity="0.1"/>
</radialGradient>
<linearGradient id="paint3_linear_1163_216" x1="12.3538" y1="9.53589" x2="31.815" y2="12.6873" gradientUnits="userSpaceOnUse">
<stop offset="0.208333" stop-color="white"/>
<stop offset="0.369792" stop-color="#59636C" stop-opacity="0.65"/>
<stop offset="0.66093" stop-color="white"/>
<stop offset="0.78266" stop-color="#486177" stop-opacity="0.55"/>
<stop offset="1" stop-color="#67737E" stop-opacity="0.95"/>
</linearGradient>
<radialGradient id="paint4_radial_1163_216" cx="0" cy="0" r="1" gradientUnits="userSpaceOnUse" gradientTransform="translate(12.3538 9.53589) rotate(70.057) scale(22.263 7.45172)">
<stop stop-color="white"/>
<stop offset="1" stop-color="#F8B017" stop-opacity="0.2"/>
</radialGradient>
<radialGradient id="paint5_radial_1163_216" cx="0" cy="0" r="1" gradientUnits="userSpaceOnUse" gradientTransform="translate(12.3538 9.53589) rotate(68.0427) scale(22.5648 10.6316)">
<stop offset="0.28423" stop-color="white" stop-opacity="0.75"/>
<stop offset="0.98979" stop-color="#F8B017" stop-opacity="0.1"/>
</radialGradient>
<clipPath id="clip0_1163_216">
<rect width="40" height="40" fill="white"/>
</clipPath>
</defs>
</svg>
