<svg width="40" height="40" viewBox="0 0 40 40" fill="none" xmlns="http://www.w3.org/2000/svg">
<path d="M20 0C8.9543 0 0 8.9543 0 20C0 31.0457 8.9543 40 20 40C31.0457 40 40 31.0457 40 20C40 8.9543 31.0457 0 20 0ZM20 38.1818C9.95844 38.1818 1.8182 30.0416 1.8182 20C1.8182 9.95844 9.95844 1.8182 20 1.8182C30.0416 1.8182 38.1818 9.95844 38.1818 20C38.1818 30.0416 30.0416 38.1818 20 38.1818Z" fill="url(#paint0_linear_1163_197)"/>
<path d="M20 0C8.9543 0 0 8.9543 0 20C0 31.0457 8.9543 40 20 40C31.0457 40 40 31.0457 40 20C40 8.9543 31.0457 0 20 0ZM20 38.1818C9.95844 38.1818 1.8182 30.0416 1.8182 20C1.8182 9.95844 9.95844 1.8182 20 1.8182C30.0416 1.8182 38.1818 9.95844 38.1818 20C38.1818 30.0416 30.0416 38.1818 20 38.1818Z" fill="url(#paint1_radial_1163_197)" fill-opacity="0.8"/>
<path d="M20 0C8.9543 0 0 8.9543 0 20C0 31.0457 8.9543 40 20 40C31.0457 40 40 31.0457 40 20C40 8.9543 31.0457 0 20 0ZM20 38.1818C9.95844 38.1818 1.8182 30.0416 1.8182 20C1.8182 9.95844 9.95844 1.8182 20 1.8182C30.0416 1.8182 38.1818 9.95844 38.1818 20C38.1818 30.0416 30.0416 38.1818 20 38.1818Z" fill="#FFAD00" fill-opacity="0.45"/>
<path d="M20 0C8.9543 0 0 8.9543 0 20C0 31.0457 8.9543 40 20 40C31.0457 40 40 31.0457 40 20C40 8.9543 31.0457 0 20 0ZM20 38.1818C9.95844 38.1818 1.8182 30.0416 1.8182 20C1.8182 9.95844 9.95844 1.8182 20 1.8182C30.0416 1.8182 38.1818 9.95844 38.1818 20C38.1818 30.0416 30.0416 38.1818 20 38.1818Z" fill="url(#paint2_radial_1163_197)" fill-opacity="0.8"/>
<path d="M24.688 30.694C26.5913 31.5006 27.3009 29.7803 27.3028 29.7757L30.9091 12.172C30.9091 10.2497 28.6826 11.0721 28.4908 11.1513L8.49572 18.7716C6.77936 19.4031 6.95483 21.0619 8.48997 21.5406C10.2111 22.1078 11.9352 22.6675 13.6582 23.231L24.1884 16.7357C21.3849 19.1878 18.5794 21.6372 15.7739 24.0865L15.7735 24.0869C17.2137 25.158 23.6534 30.2544 24.688 30.694Z" fill="url(#paint3_linear_1163_197)"/>
<path d="M24.688 30.694C26.5913 31.5006 27.3009 29.7803 27.3028 29.7757L30.9091 12.172C30.9091 10.2497 28.6826 11.0721 28.4908 11.1513L8.49572 18.7716C6.77936 19.4031 6.95483 21.0619 8.48997 21.5406C10.2111 22.1078 11.9352 22.6675 13.6582 23.231L24.1884 16.7357C21.3849 19.1878 18.5794 21.6372 15.7739 24.0865L15.7735 24.0869C17.2137 25.158 23.6534 30.2544 24.688 30.694Z" fill="url(#paint4_radial_1163_197)" fill-opacity="0.8"/>
<path d="M24.688 30.694C26.5913 31.5006 27.3009 29.7803 27.3028 29.7757L30.9091 12.172C30.9091 10.2497 28.6826 11.0721 28.4908 11.1513L8.49572 18.7716C6.77936 19.4031 6.95483 21.0619 8.48997 21.5406C10.2111 22.1078 11.9352 22.6675 13.6582 23.231L24.1884 16.7357C21.3849 19.1878 18.5794 21.6372 15.7739 24.0865L15.7735 24.0869C17.2137 25.158 23.6534 30.2544 24.688 30.694Z" fill="#FFAD00" fill-opacity="0.45"/>
<path d="M24.688 30.694C26.5913 31.5006 27.3009 29.7803 27.3028 29.7757L30.9091 12.172C30.9091 10.2497 28.6826 11.0721 28.4908 11.1513L8.49572 18.7716C6.77936 19.4031 6.95483 21.0619 8.48997 21.5406C10.2111 22.1078 11.9352 22.6675 13.6582 23.231L24.1884 16.7357C21.3849 19.1878 18.5794 21.6372 15.7739 24.0865L15.7735 24.0869C17.2137 25.158 23.6534 30.2544 24.688 30.694Z" fill="url(#paint5_radial_1163_197)" fill-opacity="0.8"/>
<defs>
<linearGradient id="paint0_linear_1163_197" x1="0" y1="0" x2="49.7931" y2="11.0345" gradientUnits="userSpaceOnUse">
<stop offset="0.208333" stop-color="white"/>
<stop offset="0.369792" stop-color="#59636C" stop-opacity="0.65"/>
<stop offset="0.66093" stop-color="white"/>
<stop offset="0.78266" stop-color="#486177" stop-opacity="0.55"/>
<stop offset="1" stop-color="#67737E" stop-opacity="0.95"/>
</linearGradient>
<radialGradient id="paint1_radial_1163_197" cx="0" cy="0" r="1" gradientUnits="userSpaceOnUse" gradientTransform="rotate(63.5932) scale(44.6598 18.5709)">
<stop stop-color="white"/>
<stop offset="1" stop-color="#F8B017" stop-opacity="0.2"/>
</radialGradient>
<radialGradient id="paint2_radial_1163_197" cx="0" cy="0" r="1" gradientUnits="userSpaceOnUse" gradientTransform="rotate(61.1134) scale(45.6841 26.2528)">
<stop offset="0.28423" stop-color="white" stop-opacity="0.75"/>
<stop offset="0.98979" stop-color="#F8B017" stop-opacity="0.1"/>
</radialGradient>
<linearGradient id="paint3_linear_1163_197" x1="7.27271" y1="10.9092" x2="36.1595" y2="18.4746" gradientUnits="userSpaceOnUse">
<stop offset="0.208333" stop-color="white"/>
<stop offset="0.369792" stop-color="#59636C" stop-opacity="0.65"/>
<stop offset="0.66093" stop-color="white"/>
<stop offset="0.78266" stop-color="#486177" stop-opacity="0.55"/>
<stop offset="1" stop-color="#67737E" stop-opacity="0.95"/>
</linearGradient>
<radialGradient id="paint4_radial_1163_197" cx="0" cy="0" r="1" gradientUnits="userSpaceOnUse" gradientTransform="translate(7.27271 10.9092) rotate(59.5941) scale(23.1894 10.567)">
<stop stop-color="white"/>
<stop offset="1" stop-color="#F8B017" stop-opacity="0.2"/>
</radialGradient>
<radialGradient id="paint5_radial_1163_197" cx="0" cy="0" r="1" gradientUnits="userSpaceOnUse" gradientTransform="translate(7.27271 10.9092) rotate(56.8941) scale(23.876 14.8412)">
<stop offset="0.28423" stop-color="white" stop-opacity="0.75"/>
<stop offset="0.98979" stop-color="#F8B017" stop-opacity="0.1"/>
</radialGradient>
</defs>
</svg>
