<svg width="40" height="40" viewBox="0 0 40 40" fill="none" xmlns="http://www.w3.org/2000/svg">
<path d="M29.5001 13.0001C28.7662 13.4349 27.9639 13.7423 27.1273 13.9091C26.4164 13.1635 25.4303 12.7427 24.4001 12.7455C22.3706 12.7302 20.7076 14.3526 20.6728 16.3818C20.6737 16.6635 20.7072 16.9442 20.7728 17.2182C17.7839 17.0771 14.9924 15.6847 13.0819 13.3819C12.7551 13.9326 12.5795 14.5598 12.5728 15.2001C12.5729 16.4347 13.1994 17.5848 14.2365 18.2546C13.6442 18.2353 13.0648 18.0765 12.5455 17.7909C12.5455 17.7909 12.5455 17.7909 12.5455 17.8364C12.5396 19.6096 13.7954 21.1365 15.5365 21.4727C14.9877 21.6191 14.413 21.6408 13.8547 21.5364C14.3566 23.0384 15.753 24.0592 17.3365 24.0819C16.0182 25.107 14.3973 25.6665 12.7274 25.6728C12.4236 25.6725 12.12 25.6543 11.8184 25.6183C13.5291 26.7005 15.5122 27.2743 17.5366 27.2728C23.3094 27.3783 28.0748 22.7838 28.1803 17.0109C28.1814 16.9498 28.182 16.8886 28.182 16.8273C28.182 16.6698 28.182 16.5122 28.182 16.3546C28.8945 15.8324 29.5099 15.1894 30.0002 14.4546C29.3177 14.7534 28.5947 14.9495 27.8548 15.0364C28.633 14.5809 29.2181 13.8567 29.5001 13.0001Z" fill="url(#paint0_linear_1163_213)"/>
<path d="M29.5001 13.0001C28.7662 13.4349 27.9639 13.7423 27.1273 13.9091C26.4164 13.1635 25.4303 12.7427 24.4001 12.7455C22.3706 12.7302 20.7076 14.3526 20.6728 16.3818C20.6737 16.6635 20.7072 16.9442 20.7728 17.2182C17.7839 17.0771 14.9924 15.6847 13.0819 13.3819C12.7551 13.9326 12.5795 14.5598 12.5728 15.2001C12.5729 16.4347 13.1994 17.5848 14.2365 18.2546C13.6442 18.2353 13.0648 18.0765 12.5455 17.7909C12.5455 17.7909 12.5455 17.7909 12.5455 17.8364C12.5396 19.6096 13.7954 21.1365 15.5365 21.4727C14.9877 21.6191 14.413 21.6408 13.8547 21.5364C14.3566 23.0384 15.753 24.0592 17.3365 24.0819C16.0182 25.107 14.3973 25.6665 12.7274 25.6728C12.4236 25.6725 12.12 25.6543 11.8184 25.6183C13.5291 26.7005 15.5122 27.2743 17.5366 27.2728C23.3094 27.3783 28.0748 22.7838 28.1803 17.0109C28.1814 16.9498 28.182 16.8886 28.182 16.8273C28.182 16.6698 28.182 16.5122 28.182 16.3546C28.8945 15.8324 29.5099 15.1894 30.0002 14.4546C29.3177 14.7534 28.5947 14.9495 27.8548 15.0364C28.633 14.5809 29.2181 13.8567 29.5001 13.0001Z" fill="url(#paint1_radial_1163_213)" fill-opacity="0.8"/>
<path d="M29.5001 13.0001C28.7662 13.4349 27.9639 13.7423 27.1273 13.9091C26.4164 13.1635 25.4303 12.7427 24.4001 12.7455C22.3706 12.7302 20.7076 14.3526 20.6728 16.3818C20.6737 16.6635 20.7072 16.9442 20.7728 17.2182C17.7839 17.0771 14.9924 15.6847 13.0819 13.3819C12.7551 13.9326 12.5795 14.5598 12.5728 15.2001C12.5729 16.4347 13.1994 17.5848 14.2365 18.2546C13.6442 18.2353 13.0648 18.0765 12.5455 17.7909C12.5455 17.7909 12.5455 17.7909 12.5455 17.8364C12.5396 19.6096 13.7954 21.1365 15.5365 21.4727C14.9877 21.6191 14.413 21.6408 13.8547 21.5364C14.3566 23.0384 15.753 24.0592 17.3365 24.0819C16.0182 25.107 14.3973 25.6665 12.7274 25.6728C12.4236 25.6725 12.12 25.6543 11.8184 25.6183C13.5291 26.7005 15.5122 27.2743 17.5366 27.2728C23.3094 27.3783 28.0748 22.7838 28.1803 17.0109C28.1814 16.9498 28.182 16.8886 28.182 16.8273C28.182 16.6698 28.182 16.5122 28.182 16.3546C28.8945 15.8324 29.5099 15.1894 30.0002 14.4546C29.3177 14.7534 28.5947 14.9495 27.8548 15.0364C28.633 14.5809 29.2181 13.8567 29.5001 13.0001Z" fill="#FFAD00" fill-opacity="0.45"/>
<path d="M29.5001 13.0001C28.7662 13.4349 27.9639 13.7423 27.1273 13.9091C26.4164 13.1635 25.4303 12.7427 24.4001 12.7455C22.3706 12.7302 20.7076 14.3526 20.6728 16.3818C20.6737 16.6635 20.7072 16.9442 20.7728 17.2182C17.7839 17.0771 14.9924 15.6847 13.0819 13.3819C12.7551 13.9326 12.5795 14.5598 12.5728 15.2001C12.5729 16.4347 13.1994 17.5848 14.2365 18.2546C13.6442 18.2353 13.0648 18.0765 12.5455 17.7909C12.5455 17.7909 12.5455 17.7909 12.5455 17.8364C12.5396 19.6096 13.7954 21.1365 15.5365 21.4727C14.9877 21.6191 14.413 21.6408 13.8547 21.5364C14.3566 23.0384 15.753 24.0592 17.3365 24.0819C16.0182 25.107 14.3973 25.6665 12.7274 25.6728C12.4236 25.6725 12.12 25.6543 11.8184 25.6183C13.5291 26.7005 15.5122 27.2743 17.5366 27.2728C23.3094 27.3783 28.0748 22.7838 28.1803 17.0109C28.1814 16.9498 28.182 16.8886 28.182 16.8273C28.182 16.6698 28.182 16.5122 28.182 16.3546C28.8945 15.8324 29.5099 15.1894 30.0002 14.4546C29.3177 14.7534 28.5947 14.9495 27.8548 15.0364C28.633 14.5809 29.2181 13.8567 29.5001 13.0001Z" fill="url(#paint2_radial_1163_213)" fill-opacity="0.8"/>
<path d="M20 0C8.9543 0 0 8.9543 0 20C0 31.0457 8.9543 40 20 40C31.0457 40 40 31.0457 40 20C40 8.9543 31.0457 0 20 0ZM20 38.1818C9.95844 38.1818 1.8182 30.0416 1.8182 20C1.8182 9.95844 9.95844 1.8182 20 1.8182C30.0416 1.8182 38.1818 9.95844 38.1818 20C38.1818 30.0416 30.0416 38.1818 20 38.1818Z" fill="url(#paint3_linear_1163_213)"/>
<path d="M20 0C8.9543 0 0 8.9543 0 20C0 31.0457 8.9543 40 20 40C31.0457 40 40 31.0457 40 20C40 8.9543 31.0457 0 20 0ZM20 38.1818C9.95844 38.1818 1.8182 30.0416 1.8182 20C1.8182 9.95844 9.95844 1.8182 20 1.8182C30.0416 1.8182 38.1818 9.95844 38.1818 20C38.1818 30.0416 30.0416 38.1818 20 38.1818Z" fill="url(#paint4_radial_1163_213)" fill-opacity="0.8"/>
<path d="M20 0C8.9543 0 0 8.9543 0 20C0 31.0457 8.9543 40 20 40C31.0457 40 40 31.0457 40 20C40 8.9543 31.0457 0 20 0ZM20 38.1818C9.95844 38.1818 1.8182 30.0416 1.8182 20C1.8182 9.95844 9.95844 1.8182 20 1.8182C30.0416 1.8182 38.1818 9.95844 38.1818 20C38.1818 30.0416 30.0416 38.1818 20 38.1818Z" fill="#FFAD00" fill-opacity="0.45"/>
<path d="M20 0C8.9543 0 0 8.9543 0 20C0 31.0457 8.9543 40 20 40C31.0457 40 40 31.0457 40 20C40 8.9543 31.0457 0 20 0ZM20 38.1818C9.95844 38.1818 1.8182 30.0416 1.8182 20C1.8182 9.95844 9.95844 1.8182 20 1.8182C30.0416 1.8182 38.1818 9.95844 38.1818 20C38.1818 30.0416 30.0416 38.1818 20 38.1818Z" fill="url(#paint5_radial_1163_213)" fill-opacity="0.8"/>
<defs>
<linearGradient id="paint0_linear_1163_213" x1="11.8184" y1="12.7454" x2="33.8675" y2="18.86" gradientUnits="userSpaceOnUse">
<stop offset="0.208333" stop-color="white"/>
<stop offset="0.369792" stop-color="#59636C" stop-opacity="0.65"/>
<stop offset="0.66093" stop-color="white"/>
<stop offset="0.78266" stop-color="#486177" stop-opacity="0.55"/>
<stop offset="1" stop-color="#67737E" stop-opacity="0.95"/>
</linearGradient>
<radialGradient id="paint1_radial_1163_213" cx="0" cy="0" r="1" gradientUnits="userSpaceOnUse" gradientTransform="translate(11.8184 12.7454) rotate(58.1438) scale(17.1058 8.00514)">
<stop stop-color="white"/>
<stop offset="1" stop-color="#F8B017" stop-opacity="0.2"/>
</radialGradient>
<radialGradient id="paint2_radial_1163_213" cx="0" cy="0" r="1" gradientUnits="userSpaceOnUse" gradientTransform="translate(11.8184 12.7454) rotate(55.3778) scale(17.6558 11.2154)">
<stop offset="0.28423" stop-color="white" stop-opacity="0.75"/>
<stop offset="0.98979" stop-color="#F8B017" stop-opacity="0.1"/>
</radialGradient>
<linearGradient id="paint3_linear_1163_213" x1="0" y1="0" x2="49.7931" y2="11.0345" gradientUnits="userSpaceOnUse">
<stop offset="0.208333" stop-color="white"/>
<stop offset="0.369792" stop-color="#59636C" stop-opacity="0.65"/>
<stop offset="0.66093" stop-color="white"/>
<stop offset="0.78266" stop-color="#486177" stop-opacity="0.55"/>
<stop offset="1" stop-color="#67737E" stop-opacity="0.95"/>
</linearGradient>
<radialGradient id="paint4_radial_1163_213" cx="0" cy="0" r="1" gradientUnits="userSpaceOnUse" gradientTransform="rotate(63.5932) scale(44.6598 18.5709)">
<stop stop-color="white"/>
<stop offset="1" stop-color="#F8B017" stop-opacity="0.2"/>
</radialGradient>
<radialGradient id="paint5_radial_1163_213" cx="0" cy="0" r="1" gradientUnits="userSpaceOnUse" gradientTransform="rotate(61.1134) scale(45.6841 26.2528)">
<stop offset="0.28423" stop-color="white" stop-opacity="0.75"/>
<stop offset="0.98979" stop-color="#F8B017" stop-opacity="0.1"/>
</radialGradient>
</defs>
</svg>
