<svg width="40" height="40" viewBox="0 0 40 40" fill="none" xmlns="http://www.w3.org/2000/svg">
<path d="M20 0C8.95434 0 3.99622e-05 8.9543 3.99622e-05 20C3.99622e-05 23.2735 0.786507 26.3634 2.1808 29.0909C0 40 2.1808 29.0909 0 40C10.9091 37.8192 0 40 10.9091 37.8192C13.6367 39.2135 16.7265 40 20 40C31.0457 40 40 31.0457 40 20C40 8.9543 31.0457 0 20 0ZM20 38.1818C9.95848 38.1818 1.81824 30.0416 1.81824 20C1.81824 9.95844 9.95848 1.8182 20 1.8182C30.0416 1.8182 38.1818 9.95844 38.1818 20C38.1818 30.0416 30.0416 38.1818 20 38.1818Z" fill="url(#paint0_linear_1163_210)"/>
<path d="M20 0C8.95434 0 3.99622e-05 8.9543 3.99622e-05 20C3.99622e-05 23.2735 0.786507 26.3634 2.1808 29.0909C0 40 2.1808 29.0909 0 40C10.9091 37.8192 0 40 10.9091 37.8192C13.6367 39.2135 16.7265 40 20 40C31.0457 40 40 31.0457 40 20C40 8.9543 31.0457 0 20 0ZM20 38.1818C9.95848 38.1818 1.81824 30.0416 1.81824 20C1.81824 9.95844 9.95848 1.8182 20 1.8182C30.0416 1.8182 38.1818 9.95844 38.1818 20C38.1818 30.0416 30.0416 38.1818 20 38.1818Z" fill="url(#paint1_radial_1163_210)" fill-opacity="0.8"/>
<path d="M20 0C8.95434 0 3.99622e-05 8.9543 3.99622e-05 20C3.99622e-05 23.2735 0.786507 26.3634 2.1808 29.0909C0 40 2.1808 29.0909 0 40C10.9091 37.8192 0 40 10.9091 37.8192C13.6367 39.2135 16.7265 40 20 40C31.0457 40 40 31.0457 40 20C40 8.9543 31.0457 0 20 0ZM20 38.1818C9.95848 38.1818 1.81824 30.0416 1.81824 20C1.81824 9.95844 9.95848 1.8182 20 1.8182C30.0416 1.8182 38.1818 9.95844 38.1818 20C38.1818 30.0416 30.0416 38.1818 20 38.1818Z" fill="#FFAD00" fill-opacity="0.45"/>
<path d="M20 0C8.95434 0 3.99622e-05 8.9543 3.99622e-05 20C3.99622e-05 23.2735 0.786507 26.3634 2.1808 29.0909C0 40 2.1808 29.0909 0 40C10.9091 37.8192 0 40 10.9091 37.8192C13.6367 39.2135 16.7265 40 20 40C31.0457 40 40 31.0457 40 20C40 8.9543 31.0457 0 20 0ZM20 38.1818C9.95848 38.1818 1.81824 30.0416 1.81824 20C1.81824 9.95844 9.95848 1.8182 20 1.8182C30.0416 1.8182 38.1818 9.95844 38.1818 20C38.1818 30.0416 30.0416 38.1818 20 38.1818Z" fill="url(#paint2_radial_1163_210)" fill-opacity="0.8"/>
<path d="M30.3844 24.5201L26.3369 21.8203C25.8233 21.4805 25.1347 21.5923 24.755 22.0773L23.7134 23.5106C23.5619 23.7105 23.2865 23.7684 23.0673 23.6466L22.843 23.523C22.0995 23.1177 21.1745 22.613 19.3107 20.7482C17.4469 18.8833 16.9413 17.9574 16.5361 17.2151L16.4131 16.9908C16.2897 16.7716 16.3465 16.495 16.5464 16.3422L17.9239 15.2462C18.4086 14.8664 18.5206 14.1779 18.1812 13.664L15.4819 9.61563C15.1341 9.09231 14.4362 8.93521 13.8978 9.25897L12.2052 10.2759C11.6734 10.5886 11.3285 11.095 11.1618 11.6891C10.5523 13.9103 10.63 18.082 16.2757 23.7295C20.7668 28.2212 24.4458 29.0908 26.7438 29.0908C27.2727 29.093 27.7995 29.0242 28.3101 28.8861C28.9041 28.7196 29.4105 28.3293 29.723 27.7972L30.7407 26.1054C31.0649 25.5667 30.9079 24.8682 30.3844 24.5201Z" fill="url(#paint3_linear_1163_210)"/>
<path d="M30.3844 24.5201L26.3369 21.8203C25.8233 21.4805 25.1347 21.5923 24.755 22.0773L23.7134 23.5106C23.5619 23.7105 23.2865 23.7684 23.0673 23.6466L22.843 23.523C22.0995 23.1177 21.1745 22.613 19.3107 20.7482C17.4469 18.8833 16.9413 17.9574 16.5361 17.2151L16.4131 16.9908C16.2897 16.7716 16.3465 16.495 16.5464 16.3422L17.9239 15.2462C18.4086 14.8664 18.5206 14.1779 18.1812 13.664L15.4819 9.61563C15.1341 9.09231 14.4362 8.93521 13.8978 9.25897L12.2052 10.2759C11.6734 10.5886 11.3285 11.095 11.1618 11.6891C10.5523 13.9103 10.63 18.082 16.2757 23.7295C20.7668 28.2212 24.4458 29.0908 26.7438 29.0908C27.2727 29.093 27.7995 29.0242 28.3101 28.8861C28.9041 28.7196 29.4105 28.3293 29.723 27.7972L30.7407 26.1054C31.0649 25.5667 30.9079 24.8682 30.3844 24.5201Z" fill="url(#paint4_radial_1163_210)" fill-opacity="0.8"/>
<path d="M30.3844 24.5201L26.3369 21.8203C25.8233 21.4805 25.1347 21.5923 24.755 22.0773L23.7134 23.5106C23.5619 23.7105 23.2865 23.7684 23.0673 23.6466L22.843 23.523C22.0995 23.1177 21.1745 22.613 19.3107 20.7482C17.4469 18.8833 16.9413 17.9574 16.5361 17.2151L16.4131 16.9908C16.2897 16.7716 16.3465 16.495 16.5464 16.3422L17.9239 15.2462C18.4086 14.8664 18.5206 14.1779 18.1812 13.664L15.4819 9.61563C15.1341 9.09231 14.4362 8.93521 13.8978 9.25897L12.2052 10.2759C11.6734 10.5886 11.3285 11.095 11.1618 11.6891C10.5523 13.9103 10.63 18.082 16.2757 23.7295C20.7668 28.2212 24.4458 29.0908 26.7438 29.0908C27.2727 29.093 27.7995 29.0242 28.3101 28.8861C28.9041 28.7196 29.4105 28.3293 29.723 27.7972L30.7407 26.1054C31.0649 25.5667 30.9079 24.8682 30.3844 24.5201Z" fill="#FFAD00" fill-opacity="0.45"/>
<path d="M30.3844 24.5201L26.3369 21.8203C25.8233 21.4805 25.1347 21.5923 24.755 22.0773L23.7134 23.5106C23.5619 23.7105 23.2865 23.7684 23.0673 23.6466L22.843 23.523C22.0995 23.1177 21.1745 22.613 19.3107 20.7482C17.4469 18.8833 16.9413 17.9574 16.5361 17.2151L16.4131 16.9908C16.2897 16.7716 16.3465 16.495 16.5464 16.3422L17.9239 15.2462C18.4086 14.8664 18.5206 14.1779 18.1812 13.664L15.4819 9.61563C15.1341 9.09231 14.4362 8.93521 13.8978 9.25897L12.2052 10.2759C11.6734 10.5886 11.3285 11.095 11.1618 11.6891C10.5523 13.9103 10.63 18.082 16.2757 23.7295C20.7668 28.2212 24.4458 29.0908 26.7438 29.0908C27.2727 29.093 27.7995 29.0242 28.3101 28.8861C28.9041 28.7196 29.4105 28.3293 29.723 27.7972L30.7407 26.1054C31.0649 25.5667 30.9079 24.8682 30.3844 24.5201Z" fill="url(#paint5_radial_1163_210)" fill-opacity="0.8"/>
<defs>
<linearGradient id="paint0_linear_1163_210" x1="0" y1="0" x2="49.7932" y2="11.0345" gradientUnits="userSpaceOnUse">
<stop offset="0.208333" stop-color="white"/>
<stop offset="0.369792" stop-color="#59636C" stop-opacity="0.65"/>
<stop offset="0.66093" stop-color="white"/>
<stop offset="0.78266" stop-color="#486177" stop-opacity="0.55"/>
<stop offset="1" stop-color="#67737E" stop-opacity="0.95"/>
</linearGradient>
<radialGradient id="paint1_radial_1163_210" cx="0" cy="0" r="1" gradientUnits="userSpaceOnUse" gradientTransform="rotate(63.5932) scale(44.6599 18.5709)">
<stop stop-color="white"/>
<stop offset="1" stop-color="#F8B017" stop-opacity="0.2"/>
</radialGradient>
<radialGradient id="paint2_radial_1163_210" cx="0" cy="0" r="1" gradientUnits="userSpaceOnUse" gradientTransform="rotate(61.1134) scale(45.6841 26.2528)">
<stop offset="0.28423" stop-color="white" stop-opacity="0.75"/>
<stop offset="0.98979" stop-color="#F8B017" stop-opacity="0.1"/>
</radialGradient>
<linearGradient id="paint3_linear_1163_210" x1="10.9092" y1="9.09082" x2="35.8057" y2="14.6081" gradientUnits="userSpaceOnUse">
<stop offset="0.208333" stop-color="white"/>
<stop offset="0.369792" stop-color="#59636C" stop-opacity="0.65"/>
<stop offset="0.66093" stop-color="white"/>
<stop offset="0.78266" stop-color="#486177" stop-opacity="0.55"/>
<stop offset="1" stop-color="#67737E" stop-opacity="0.95"/>
</linearGradient>
<radialGradient id="paint4_radial_1163_210" cx="0" cy="0" r="1" gradientUnits="userSpaceOnUse" gradientTransform="translate(10.9092 9.09082) rotate(63.5932) scale(22.3299 9.28546)">
<stop stop-color="white"/>
<stop offset="1" stop-color="#F8B017" stop-opacity="0.2"/>
</radialGradient>
<radialGradient id="paint5_radial_1163_210" cx="0" cy="0" r="1" gradientUnits="userSpaceOnUse" gradientTransform="translate(10.9092 9.09082) rotate(61.1134) scale(22.8421 13.1264)">
<stop offset="0.28423" stop-color="white" stop-opacity="0.75"/>
<stop offset="0.98979" stop-color="#F8B017" stop-opacity="0.1"/>
</radialGradient>
</defs>
</svg>
