<svg width="24" height="30" viewBox="0 0 24 30" fill="none" xmlns="http://www.w3.org/2000/svg">
<path fill-rule="evenodd" clip-rule="evenodd" d="M15.1996 0.580134C14.0624 0.10389 12.8252 -0.0836308 11.5982 0.0342426C10.3711 0.152116 9.19215 0.571731 8.1661 1.25578C7.14006 1.93983 6.29872 2.86713 5.71688 3.95522C5.13505 5.04331 4.83075 6.25849 4.83103 7.49272C4.83103 7.52632 4.83185 7.5602 4.83228 7.5939C4.8578 9.56672 5.65971 11.4498 7.06382 12.8341C8.46793 14.2184 10.3608 14.9921 12.3314 14.9871C14.3019 14.9822 16.1909 14.199 17.588 12.8077C18.9852 11.4163 19.7777 9.52925 19.7933 7.55632C19.7933 7.5351 19.7941 7.51398 19.7941 7.49272C19.7942 6.01533 19.3581 4.57087 18.5406 3.34093C17.7232 2.111 16.5608 1.15048 15.1996 0.580134ZM18.9366 13.777C17.4254 15.2036 15.4549 16.3215 13.2705 16.5368C12.9554 16.5678 12.6361 16.5835 12.3125 16.5838C12.0286 16.5838 11.7478 16.5708 11.4701 16.5468C9.23985 16.3537 7.22639 15.2285 5.68861 13.7768C4.20628 14.507 2.95791 15.6384 2.08503 17.0427C1.21214 18.447 0.749654 20.0681 0.75 21.7221V25.3449C3.86141 28.3227 7.99688 29.9893 12.3011 29.9999C16.6053 30.0106 20.7489 28.3645 23.875 25.4021V21.7221C23.8753 20.0681 23.4128 18.4471 22.5399 17.0428C21.6671 15.6385 20.4189 14.5072 18.9366 13.777Z" fill="black"/>
</svg>
