<?xml version="1.0" encoding="utf-8"?><svg viewBox="0 0 40 40" xmlns="http://www.w3.org/2000/svg" xmlns:xlink="http://www.w3.org/1999/xlink"><style>:root>svg{display:none}:root>svg:target{display:block}</style><svg fill="none" viewBox="0 0 40 40" id="clubhouse" xmlns="http://www.w3.org/2000/svg"><path fill-rule="evenodd" clip-rule="evenodd" d="M8.155 16.966A34.06 34.06 0 009.6 20.828c.927 2.2 1.552 3.365 2.417 4.81l.095.156c1.032 1.686 2.185 3.57 4.046 4.805C17.56 31.526 19.265 32 20.904 32c2.309 0 4.292-1.013 5.566-2.201 1.25-1.164 2.87-3.409 2.87-7.787 0-1.423.594-2.656 1.077-3.66l.087-.18c0-.022.022-.065.065-.151.194-.431.43-.992.43-1.553 0-.41-.107-.884-.387-1.293-.431-.733-1.207-.992-1.921-.992-1.66 0-2.805 1.164-3.387 2.352l-.194.388a20.582 20.582 0 01-.668-1.035c-.604-1.056-.95-1.768-1.251-2.675a18.247 18.247 0 01-.56-2.201c-.367-2.115-.97-2.805-1.965-3.064-.733-.194-1.595-.043-2.222.367-.43-.97-1.163-1.402-2.135-1.402-1.38 0-2.632.906-2.632 2.438 0 .164.015.328.033.518l.01.108a2.349 2.349 0 00-.56-.065c-1.489 0-2.59 1.035-2.59 2.438 0 .324.043.69.15 1.122-.129-.022-.258-.022-.387-.022-.733.043-1.402.323-1.878.905-.472.561-.666 1.423-.3 2.611zm1.23-.388c-.195-.625-.173-1.1.064-1.401.237-.28.56-.41.949-.432.668-.021.927.453 1.315 1.682.237.776.711 1.9.992 2.525.366.754.884 1.768 1.12 2.115.195.302.367.388.561.388.345 0 .604-.194.604-.54 0-.174-.157-.453-.267-.65l-.035-.06-.14-.263c-.214-.395-.52-.963-.744-1.463a39.801 39.801 0 01-.927-2.33c-.173-.453-.367-1.1-.56-1.747-.302-.991-.453-1.595-.453-2.05 0-.69.517-1.143 1.293-1.143.56 0 .927.28 1.165 1.294.194.927.539 2.438 1.035 3.624.323.777.797 1.813 1.078 2.33.056.1.115.193.168.28.11.176.198.317.198.39 0 .095-.113.226-.257.392-.082.095-.174.2-.26.319-.151.194-.216.323-.216.474 0 .13.086.259.216.431.129.173.258.345.41.345.107 0 .172-.043.236-.129a7.437 7.437 0 012.245-1.9c.992-.56 2.007-.84 2.805-1.013.388-.086.495-.172.495-.388 0-.259-.194-.41-.452-.431a2.663 2.663 0 00-.515.01l-.154.012c-.215.021-.323-.087-.452-.367-.06-.127-.13-.268-.206-.422-.41-.837-1.008-2.054-1.39-3.547a16.945 16.945 0 01-.474-2.59c-.065-.474.021-.646.258-.862.302-.259.841-.366 1.251-.259.496.13.755.518 1.014 2.03.129.71.345 1.616.603 2.394.324.992.733 1.813 1.359 2.913.345.604.776 1.229 1.228 1.835-.086.258-.237.43-.733.84-.495.41-.991.841-1.444 1.64-.324.581-.475 1.228-.475 1.66 0 .409.087.495.345.495.453 0 .82-.086.841-.28.108-.776.238-1.272.669-1.856.258-.324.711-.733 1.078-1.057.69-.56.927-.884 1.164-1.681a5.45 5.45 0 01.41-1.036c.41-.754 1.143-1.617 2.287-1.617.367 0 .668.108.863.41.107.173.15.41.15.582 0 .37-.253.876-.39 1.147l-.02.04-.073.157c-.477 1.014-1.177 2.5-1.177 4.2 0 3.904-1.38 5.846-2.46 6.838-1.056.992-2.718 1.856-4.68 1.856a7.467 7.467 0 01-4.034-1.186c-1.627-1.077-2.655-2.756-3.69-4.446l-.064-.105c-.84-1.401-1.423-2.503-2.33-4.637-.512-1.237-.988-2.445-1.398-3.76zm6.924-8.37c-.625 0-1.38.324-1.38 1.143 0 .54.151 1.337.302 1.982.188.455.262.784.412 1.448.057.252.124.552.213.926.194.8.432 1.49.669 2.093.28.735.604 1.36 1.056 2.201.216.41.324.41.841.13.41-.216 1.014-.475 1.466-.626-.776-1.681-1.423-3.085-1.746-4.27-.086-.346-.388-1.727-.474-2.331-.065-.604-.13-1.121-.28-1.682-.173-.69-.41-1.013-1.079-1.013z" fill="url(#apaint0_linear_1163_203)"/><path fill-rule="evenodd" clip-rule="evenodd" d="M8.155 16.966A34.06 34.06 0 009.6 20.828c.927 2.2 1.552 3.365 2.417 4.81l.095.156c1.032 1.686 2.185 3.57 4.046 4.805C17.56 31.526 19.265 32 20.904 32c2.309 0 4.292-1.013 5.566-2.201 1.25-1.164 2.87-3.409 2.87-7.787 0-1.423.594-2.656 1.077-3.66l.087-.18c0-.022.022-.065.065-.151.194-.431.43-.992.43-1.553 0-.41-.107-.884-.387-1.293-.431-.733-1.207-.992-1.921-.992-1.66 0-2.805 1.164-3.387 2.352l-.194.388a20.582 20.582 0 01-.668-1.035c-.604-1.056-.95-1.768-1.251-2.675a18.247 18.247 0 01-.56-2.201c-.367-2.115-.97-2.805-1.965-3.064-.733-.194-1.595-.043-2.222.367-.43-.97-1.163-1.402-2.135-1.402-1.38 0-2.632.906-2.632 2.438 0 .164.015.328.033.518l.01.108a2.349 2.349 0 00-.56-.065c-1.489 0-2.59 1.035-2.59 2.438 0 .324.043.69.15 1.122-.129-.022-.258-.022-.387-.022-.733.043-1.402.323-1.878.905-.472.561-.666 1.423-.3 2.611zm1.23-.388c-.195-.625-.173-1.1.064-1.401.237-.28.56-.41.949-.432.668-.021.927.453 1.315 1.682.237.776.711 1.9.992 2.525.366.754.884 1.768 1.12 2.115.195.302.367.388.561.388.345 0 .604-.194.604-.54 0-.174-.157-.453-.267-.65l-.035-.06-.14-.263c-.214-.395-.52-.963-.744-1.463a39.801 39.801 0 01-.927-2.33c-.173-.453-.367-1.1-.56-1.747-.302-.991-.453-1.595-.453-2.05 0-.69.517-1.143 1.293-1.143.56 0 .927.28 1.165 1.294.194.927.539 2.438 1.035 3.624.323.777.797 1.813 1.078 2.33.056.1.115.193.168.28.11.176.198.317.198.39 0 .095-.113.226-.257.392-.082.095-.174.2-.26.319-.151.194-.216.323-.216.474 0 .13.086.259.216.431.129.173.258.345.41.345.107 0 .172-.043.236-.129a7.437 7.437 0 012.245-1.9c.992-.56 2.007-.84 2.805-1.013.388-.086.495-.172.495-.388 0-.259-.194-.41-.452-.431a2.663 2.663 0 00-.515.01l-.154.012c-.215.021-.323-.087-.452-.367-.06-.127-.13-.268-.206-.422-.41-.837-1.008-2.054-1.39-3.547a16.945 16.945 0 01-.474-2.59c-.065-.474.021-.646.258-.862.302-.259.841-.366 1.251-.259.496.13.755.518 1.014 2.03.129.71.345 1.616.603 2.394.324.992.733 1.813 1.359 2.913.345.604.776 1.229 1.228 1.835-.086.258-.237.43-.733.84-.495.41-.991.841-1.444 1.64-.324.581-.475 1.228-.475 1.66 0 .409.087.495.345.495.453 0 .82-.086.841-.28.108-.776.238-1.272.669-1.856.258-.324.711-.733 1.078-1.057.69-.56.927-.884 1.164-1.681a5.45 5.45 0 01.41-1.036c.41-.754 1.143-1.617 2.287-1.617.367 0 .668.108.863.41.107.173.15.41.15.582 0 .37-.253.876-.39 1.147l-.02.04-.073.157c-.477 1.014-1.177 2.5-1.177 4.2 0 3.904-1.38 5.846-2.46 6.838-1.056.992-2.718 1.856-4.68 1.856a7.467 7.467 0 01-4.034-1.186c-1.627-1.077-2.655-2.756-3.69-4.446l-.064-.105c-.84-1.401-1.423-2.503-2.33-4.637-.512-1.237-.988-2.445-1.398-3.76zm6.924-8.37c-.625 0-1.38.324-1.38 1.143 0 .54.151 1.337.302 1.982.188.455.262.784.412 1.448.057.252.124.552.213.926.194.8.432 1.49.669 2.093.28.735.604 1.36 1.056 2.201.216.41.324.41.841.13.41-.216 1.014-.475 1.466-.626-.776-1.681-1.423-3.085-1.746-4.27-.086-.346-.388-1.727-.474-2.331-.065-.604-.13-1.121-.28-1.682-.173-.69-.41-1.013-1.079-1.013z" fill="url(#apaint1_radial_1163_203)" fill-opacity=".8"/><path fill-rule="evenodd" clip-rule="evenodd" d="M8.155 16.966A34.06 34.06 0 009.6 20.828c.927 2.2 1.552 3.365 2.417 4.81l.095.156c1.032 1.686 2.185 3.57 4.046 4.805C17.56 31.526 19.265 32 20.904 32c2.309 0 4.292-1.013 5.566-2.201 1.25-1.164 2.87-3.409 2.87-7.787 0-1.423.594-2.656 1.077-3.66l.087-.18c0-.022.022-.065.065-.151.194-.431.43-.992.43-1.553 0-.41-.107-.884-.387-1.293-.431-.733-1.207-.992-1.921-.992-1.66 0-2.805 1.164-3.387 2.352l-.194.388a20.582 20.582 0 01-.668-1.035c-.604-1.056-.95-1.768-1.251-2.675a18.247 18.247 0 01-.56-2.201c-.367-2.115-.97-2.805-1.965-3.064-.733-.194-1.595-.043-2.222.367-.43-.97-1.163-1.402-2.135-1.402-1.38 0-2.632.906-2.632 2.438 0 .164.015.328.033.518l.01.108a2.349 2.349 0 00-.56-.065c-1.489 0-2.59 1.035-2.59 2.438 0 .324.043.69.15 1.122-.129-.022-.258-.022-.387-.022-.733.043-1.402.323-1.878.905-.472.561-.666 1.423-.3 2.611zm1.23-.388c-.195-.625-.173-1.1.064-1.401.237-.28.56-.41.949-.432.668-.021.927.453 1.315 1.682.237.776.711 1.9.992 2.525.366.754.884 1.768 1.12 2.115.195.302.367.388.561.388.345 0 .604-.194.604-.54 0-.174-.157-.453-.267-.65l-.035-.06-.14-.263c-.214-.395-.52-.963-.744-1.463a39.801 39.801 0 01-.927-2.33c-.173-.453-.367-1.1-.56-1.747-.302-.991-.453-1.595-.453-2.05 0-.69.517-1.143 1.293-1.143.56 0 .927.28 1.165 1.294.194.927.539 2.438 1.035 3.624.323.777.797 1.813 1.078 2.33.056.1.115.193.168.28.11.176.198.317.198.39 0 .095-.113.226-.257.392-.082.095-.174.2-.26.319-.151.194-.216.323-.216.474 0 .13.086.259.216.431.129.173.258.345.41.345.107 0 .172-.043.236-.129a7.437 7.437 0 012.245-1.9c.992-.56 2.007-.84 2.805-1.013.388-.086.495-.172.495-.388 0-.259-.194-.41-.452-.431a2.663 2.663 0 00-.515.01l-.154.012c-.215.021-.323-.087-.452-.367-.06-.127-.13-.268-.206-.422-.41-.837-1.008-2.054-1.39-3.547a16.945 16.945 0 01-.474-2.59c-.065-.474.021-.646.258-.862.302-.259.841-.366 1.251-.259.496.13.755.518 1.014 2.03.129.71.345 1.616.603 2.394.324.992.733 1.813 1.359 2.913.345.604.776 1.229 1.228 1.835-.086.258-.237.43-.733.84-.495.41-.991.841-1.444 1.64-.324.581-.475 1.228-.475 1.66 0 .409.087.495.345.495.453 0 .82-.086.841-.28.108-.776.238-1.272.669-1.856.258-.324.711-.733 1.078-1.057.69-.56.927-.884 1.164-1.681a5.45 5.45 0 01.41-1.036c.41-.754 1.143-1.617 2.287-1.617.367 0 .668.108.863.41.107.173.15.41.15.582 0 .37-.253.876-.39 1.147l-.02.04-.073.157c-.477 1.014-1.177 2.5-1.177 4.2 0 3.904-1.38 5.846-2.46 6.838-1.056.992-2.718 1.856-4.68 1.856a7.467 7.467 0 01-4.034-1.186c-1.627-1.077-2.655-2.756-3.69-4.446l-.064-.105c-.84-1.401-1.423-2.503-2.33-4.637-.512-1.237-.988-2.445-1.398-3.76zm6.924-8.37c-.625 0-1.38.324-1.38 1.143 0 .54.151 1.337.302 1.982.188.455.262.784.412 1.448.057.252.124.552.213.926.194.8.432 1.49.669 2.093.28.735.604 1.36 1.056 2.201.216.41.324.41.841.13.41-.216 1.014-.475 1.466-.626-.776-1.681-1.423-3.085-1.746-4.27-.086-.346-.388-1.727-.474-2.331-.065-.604-.13-1.121-.28-1.682-.173-.69-.41-1.013-1.079-1.013z" fill="#FFAD00" fill-opacity=".45"/><path fill-rule="evenodd" clip-rule="evenodd" d="M8.155 16.966A34.06 34.06 0 009.6 20.828c.927 2.2 1.552 3.365 2.417 4.81l.095.156c1.032 1.686 2.185 3.57 4.046 4.805C17.56 31.526 19.265 32 20.904 32c2.309 0 4.292-1.013 5.566-2.201 1.25-1.164 2.87-3.409 2.87-7.787 0-1.423.594-2.656 1.077-3.66l.087-.18c0-.022.022-.065.065-.151.194-.431.43-.992.43-1.553 0-.41-.107-.884-.387-1.293-.431-.733-1.207-.992-1.921-.992-1.66 0-2.805 1.164-3.387 2.352l-.194.388a20.582 20.582 0 01-.668-1.035c-.604-1.056-.95-1.768-1.251-2.675a18.247 18.247 0 01-.56-2.201c-.367-2.115-.97-2.805-1.965-3.064-.733-.194-1.595-.043-2.222.367-.43-.97-1.163-1.402-2.135-1.402-1.38 0-2.632.906-2.632 2.438 0 .164.015.328.033.518l.01.108a2.349 2.349 0 00-.56-.065c-1.489 0-2.59 1.035-2.59 2.438 0 .324.043.69.15 1.122-.129-.022-.258-.022-.387-.022-.733.043-1.402.323-1.878.905-.472.561-.666 1.423-.3 2.611zm1.23-.388c-.195-.625-.173-1.1.064-1.401.237-.28.56-.41.949-.432.668-.021.927.453 1.315 1.682.237.776.711 1.9.992 2.525.366.754.884 1.768 1.12 2.115.195.302.367.388.561.388.345 0 .604-.194.604-.54 0-.174-.157-.453-.267-.65l-.035-.06-.14-.263c-.214-.395-.52-.963-.744-1.463a39.801 39.801 0 01-.927-2.33c-.173-.453-.367-1.1-.56-1.747-.302-.991-.453-1.595-.453-2.05 0-.69.517-1.143 1.293-1.143.56 0 .927.28 1.165 1.294.194.927.539 2.438 1.035 3.624.323.777.797 1.813 1.078 2.33.056.1.115.193.168.28.11.176.198.317.198.39 0 .095-.113.226-.257.392-.082.095-.174.2-.26.319-.151.194-.216.323-.216.474 0 .13.086.259.216.431.129.173.258.345.41.345.107 0 .172-.043.236-.129a7.437 7.437 0 012.245-1.9c.992-.56 2.007-.84 2.805-1.013.388-.086.495-.172.495-.388 0-.259-.194-.41-.452-.431a2.663 2.663 0 00-.515.01l-.154.012c-.215.021-.323-.087-.452-.367-.06-.127-.13-.268-.206-.422-.41-.837-1.008-2.054-1.39-3.547a16.945 16.945 0 01-.474-2.59c-.065-.474.021-.646.258-.862.302-.259.841-.366 1.251-.259.496.13.755.518 1.014 2.03.129.71.345 1.616.603 2.394.324.992.733 1.813 1.359 2.913.345.604.776 1.229 1.228 1.835-.086.258-.237.43-.733.84-.495.41-.991.841-1.444 1.64-.324.581-.475 1.228-.475 1.66 0 .409.087.495.345.495.453 0 .82-.086.841-.28.108-.776.238-1.272.669-1.856.258-.324.711-.733 1.078-1.057.69-.56.927-.884 1.164-1.681a5.45 5.45 0 01.41-1.036c.41-.754 1.143-1.617 2.287-1.617.367 0 .668.108.863.41.107.173.15.41.15.582 0 .37-.253.876-.39 1.147l-.02.04-.073.157c-.477 1.014-1.177 2.5-1.177 4.2 0 3.904-1.38 5.846-2.46 6.838-1.056.992-2.718 1.856-4.68 1.856a7.467 7.467 0 01-4.034-1.186c-1.627-1.077-2.655-2.756-3.69-4.446l-.064-.105c-.84-1.401-1.423-2.503-2.33-4.637-.512-1.237-.988-2.445-1.398-3.76zm6.924-8.37c-.625 0-1.38.324-1.38 1.143 0 .54.151 1.337.302 1.982.188.455.262.784.412 1.448.057.252.124.552.213.926.194.8.432 1.49.669 2.093.28.735.604 1.36 1.056 2.201.216.41.324.41.841.13.41-.216 1.014-.475 1.466-.626-.776-1.681-1.423-3.085-1.746-4.27-.086-.346-.388-1.727-.474-2.331-.065-.604-.13-1.121-.28-1.682-.173-.69-.41-1.013-1.079-1.013z" fill="url(#apaint2_radial_1163_203)" fill-opacity=".8"/><path d="M20 0C8.954 0 0 8.954 0 20s8.954 20 20 20 20-8.954 20-20S31.046 0 20 0zm0 38.182C9.958 38.182 1.818 30.042 1.818 20 1.818 9.958 9.958 1.818 20 1.818c10.042 0 18.182 8.14 18.182 18.182 0 10.042-8.14 18.182-18.182 18.182z" fill="url(#apaint3_linear_1163_203)"/><path d="M20 0C8.954 0 0 8.954 0 20s8.954 20 20 20 20-8.954 20-20S31.046 0 20 0zm0 38.182C9.958 38.182 1.818 30.042 1.818 20 1.818 9.958 9.958 1.818 20 1.818c10.042 0 18.182 8.14 18.182 18.182 0 10.042-8.14 18.182-18.182 18.182z" fill="url(#apaint4_radial_1163_203)" fill-opacity=".8"/><path d="M20 0C8.954 0 0 8.954 0 20s8.954 20 20 20 20-8.954 20-20S31.046 0 20 0zm0 38.182C9.958 38.182 1.818 30.042 1.818 20 1.818 9.958 9.958 1.818 20 1.818c10.042 0 18.182 8.14 18.182 18.182 0 10.042-8.14 18.182-18.182 18.182z" fill="#FFAD00" fill-opacity=".45"/><path d="M20 0C8.954 0 0 8.954 0 20s8.954 20 20 20 20-8.954 20-20S31.046 0 20 0zm0 38.182C9.958 38.182 1.818 30.042 1.818 20 1.818 9.958 9.958 1.818 20 1.818c10.042 0 18.182 8.14 18.182 18.182 0 10.042-8.14 18.182-18.182 18.182z" fill="url(#apaint5_radial_1163_203)" fill-opacity=".8"/><defs><radialGradient id="apaint1_radial_1163_203" cx="0" cy="0" r="1" gradientUnits="userSpaceOnUse" gradientTransform="rotate(65.489 -1.393 9.649) scale(27.5717 10.8648)"><stop stop-color="#fff"/><stop offset="1" stop-color="#F8B017" stop-opacity=".2"/></radialGradient><radialGradient id="apaint2_radial_1163_203" cx="0" cy="0" r="1" gradientUnits="userSpaceOnUse" gradientTransform="rotate(63.133 -1.644 9.938) scale(28.1227 15.4034)"><stop offset=".284" stop-color="#fff" stop-opacity=".75"/><stop offset=".99" stop-color="#F8B017" stop-opacity=".1"/></radialGradient><radialGradient id="apaint4_radial_1163_203" cx="0" cy="0" r="1" gradientUnits="userSpaceOnUse" gradientTransform="matrix(19.86207 39.99995 -16.6332 8.25925 0 0)"><stop stop-color="#fff"/><stop offset="1" stop-color="#F8B017" stop-opacity=".2"/></radialGradient><radialGradient id="apaint5_radial_1163_203" cx="0" cy="0" r="1" gradientUnits="userSpaceOnUse" gradientTransform="rotate(61.113) scale(45.6841 26.2528)"><stop offset=".284" stop-color="#fff" stop-opacity=".75"/><stop offset=".99" stop-color="#F8B017" stop-opacity=".1"/></radialGradient><linearGradient id="apaint0_linear_1163_203" x1="7.964" y1="6.913" x2="36.852" y2="12.791" gradientUnits="userSpaceOnUse"><stop offset=".208" stop-color="#fff"/><stop offset=".37" stop-color="#59636C" stop-opacity=".65"/><stop offset=".661" stop-color="#fff"/><stop offset=".783" stop-color="#486177" stop-opacity=".55"/><stop offset="1" stop-color="#67737E" stop-opacity=".95"/></linearGradient><linearGradient id="apaint3_linear_1163_203" x1="0" y1="0" x2="49.793" y2="11.034" gradientUnits="userSpaceOnUse"><stop offset=".208" stop-color="#fff"/><stop offset=".37" stop-color="#59636C" stop-opacity=".65"/><stop offset=".661" stop-color="#fff"/><stop offset=".783" stop-color="#486177" stop-opacity=".55"/><stop offset="1" stop-color="#67737E" stop-opacity=".95"/></linearGradient></defs></svg><svg fill="none" viewBox="0 0 40 40" id="fb" xmlns="http://www.w3.org/2000/svg"><path d="M18.182 15.454v1.819h-1.818V20h1.818v8.182h3.636V20h2.418l.31-2.727h-2.728v-1.591c0-.737.073-1.127 1.21-1.127h1.518v-2.737h-2.437c-2.909 0-3.927 1.364-3.927 3.636z" fill="url(#bpaint0_linear_1163_200)"/><path d="M18.182 15.454v1.819h-1.818V20h1.818v8.182h3.636V20h2.418l.31-2.727h-2.728v-1.591c0-.737.073-1.127 1.21-1.127h1.518v-2.737h-2.437c-2.909 0-3.927 1.364-3.927 3.636z" fill="url(#bpaint1_radial_1163_200)" fill-opacity=".8"/><path d="M18.182 15.454v1.819h-1.818V20h1.818v8.182h3.636V20h2.418l.31-2.727h-2.728v-1.591c0-.737.073-1.127 1.21-1.127h1.518v-2.737h-2.437c-2.909 0-3.927 1.364-3.927 3.636z" fill="#FFAD00" fill-opacity=".45"/><path d="M18.182 15.454v1.819h-1.818V20h1.818v8.182h3.636V20h2.418l.31-2.727h-2.728v-1.591c0-.737.073-1.127 1.21-1.127h1.518v-2.737h-2.437c-2.909 0-3.927 1.364-3.927 3.636z" fill="url(#bpaint2_radial_1163_200)" fill-opacity=".8"/><path d="M20 0C8.954 0 0 8.954 0 20s8.954 20 20 20 20-8.954 20-20S31.046 0 20 0zm0 38.182C9.958 38.182 1.818 30.042 1.818 20 1.818 9.958 9.958 1.818 20 1.818c10.042 0 18.182 8.14 18.182 18.182 0 10.042-8.14 18.182-18.182 18.182z" fill="url(#bpaint3_linear_1163_200)"/><path d="M20 0C8.954 0 0 8.954 0 20s8.954 20 20 20 20-8.954 20-20S31.046 0 20 0zm0 38.182C9.958 38.182 1.818 30.042 1.818 20 1.818 9.958 9.958 1.818 20 1.818c10.042 0 18.182 8.14 18.182 18.182 0 10.042-8.14 18.182-18.182 18.182z" fill="url(#bpaint4_radial_1163_200)" fill-opacity=".8"/><path d="M20 0C8.954 0 0 8.954 0 20s8.954 20 20 20 20-8.954 20-20S31.046 0 20 0zm0 38.182C9.958 38.182 1.818 30.042 1.818 20 1.818 9.958 9.958 1.818 20 1.818c10.042 0 18.182 8.14 18.182 18.182 0 10.042-8.14 18.182-18.182 18.182z" fill="#FFAD00" fill-opacity=".45"/><path d="M20 0C8.954 0 0 8.954 0 20s8.954 20 20 20 20-8.954 20-20S31.046 0 20 0zm0 38.182C9.958 38.182 1.818 30.042 1.818 20 1.818 9.958 9.958 1.818 20 1.818c10.042 0 18.182 8.14 18.182 18.182 0 10.042-8.14 18.182-18.182 18.182z" fill="url(#bpaint5_radial_1163_200)" fill-opacity=".8"/><defs><radialGradient id="bpaint1_radial_1163_200" cx="0" cy="0" r="1" gradientUnits="userSpaceOnUse" gradientTransform="matrix(4.0627 16.3637 -3.99486 .99182 16.364 11.818)"><stop stop-color="#fff"/><stop offset="1" stop-color="#F8B017" stop-opacity=".2"/></radialGradient><radialGradient id="bpaint2_radial_1163_200" cx="0" cy="0" r="1" gradientUnits="userSpaceOnUse" gradientTransform="matrix(4.5141 16.36368 -5.69923 1.5722 16.364 11.818)"><stop offset=".284" stop-color="#fff" stop-opacity=".75"/><stop offset=".99" stop-color="#F8B017" stop-opacity=".1"/></radialGradient><radialGradient id="bpaint4_radial_1163_200" cx="0" cy="0" r="1" gradientUnits="userSpaceOnUse" gradientTransform="matrix(19.86207 39.99995 -16.6332 8.25925 0 0)"><stop stop-color="#fff"/><stop offset="1" stop-color="#F8B017" stop-opacity=".2"/></radialGradient><radialGradient id="bpaint5_radial_1163_200" cx="0" cy="0" r="1" gradientUnits="userSpaceOnUse" gradientTransform="rotate(61.113) scale(45.6841 26.2528)"><stop offset=".284" stop-color="#fff" stop-opacity=".75"/><stop offset=".99" stop-color="#F8B017" stop-opacity=".1"/></radialGradient><linearGradient id="bpaint0_linear_1163_200" x1="16.364" y1="11.818" x2="26.919" y2="12.988" gradientUnits="userSpaceOnUse"><stop offset=".208" stop-color="#fff"/><stop offset=".37" stop-color="#59636C" stop-opacity=".65"/><stop offset=".661" stop-color="#fff"/><stop offset=".783" stop-color="#486177" stop-opacity=".55"/><stop offset="1" stop-color="#67737E" stop-opacity=".95"/></linearGradient><linearGradient id="bpaint3_linear_1163_200" x1="0" y1="0" x2="49.793" y2="11.034" gradientUnits="userSpaceOnUse"><stop offset=".208" stop-color="#fff"/><stop offset=".37" stop-color="#59636C" stop-opacity=".65"/><stop offset=".661" stop-color="#fff"/><stop offset=".783" stop-color="#486177" stop-opacity=".55"/><stop offset="1" stop-color="#67737E" stop-opacity=".95"/></linearGradient></defs></svg><svg fill="none" viewBox="0 0 40 40" id="instagram" xmlns="http://www.w3.org/2000/svg"><path d="M20 10.042c-5.49 0-9.958 4.467-9.958 9.958 0 5.491 4.467 9.958 9.958 9.958 5.491 0 9.959-4.467 9.959-9.958 0-5.49-4.468-9.958-9.959-9.958zm0 17.572c-4.198 0-7.614-3.415-7.614-7.614 0-4.198 3.416-7.614 7.614-7.614 4.2 0 7.615 3.416 7.615 7.614 0 4.199-3.416 7.614-7.615 7.614z" fill="url(#cpaint0_linear_1163_206)"/><path d="M20 10.042c-5.49 0-9.958 4.467-9.958 9.958 0 5.491 4.467 9.958 9.958 9.958 5.491 0 9.959-4.467 9.959-9.958 0-5.49-4.468-9.958-9.959-9.958zm0 17.572c-4.198 0-7.614-3.415-7.614-7.614 0-4.198 3.416-7.614 7.614-7.614 4.2 0 7.615 3.416 7.615 7.614 0 4.199-3.416 7.614-7.615 7.614z" fill="url(#cpaint1_radial_1163_206)" fill-opacity=".8"/><path d="M20 10.042c-5.49 0-9.958 4.467-9.958 9.958 0 5.491 4.467 9.958 9.958 9.958 5.491 0 9.959-4.467 9.959-9.958 0-5.49-4.468-9.958-9.959-9.958zm0 17.572c-4.198 0-7.614-3.415-7.614-7.614 0-4.198 3.416-7.614 7.614-7.614 4.2 0 7.615 3.416 7.615 7.614 0 4.199-3.416 7.614-7.615 7.614z" fill="#FFAD00" fill-opacity=".45"/><path d="M20 10.042c-5.49 0-9.958 4.467-9.958 9.958 0 5.491 4.467 9.958 9.958 9.958 5.491 0 9.959-4.467 9.959-9.958 0-5.49-4.468-9.958-9.959-9.958zm0 17.572c-4.198 0-7.614-3.415-7.614-7.614 0-4.198 3.416-7.614 7.614-7.614 4.2 0 7.615 3.416 7.615 7.614 0 4.199-3.416 7.614-7.615 7.614z" fill="url(#cpaint2_radial_1163_206)" fill-opacity=".8"/><path d="M29.414 0H10.586C4.749 0 0 4.749 0 10.586v18.828C0 35.251 4.749 40 10.586 40h18.828C35.251 40 40 35.251 40 29.414V10.586C40 4.749 35.251 0 29.414 0zm8.453 29.414c0 4.545-3.908 8.453-8.453 8.453H10.586c-4.545 0-8.453-3.908-8.453-8.453V10.586c0-4.545 3.908-8.453 8.453-8.453h18.828c4.545 0 8.453 3.908 8.453 8.453v18.828z" fill="url(#cpaint3_linear_1163_206)"/><path d="M29.414 0H10.586C4.749 0 0 4.749 0 10.586v18.828C0 35.251 4.749 40 10.586 40h18.828C35.251 40 40 35.251 40 29.414V10.586C40 4.749 35.251 0 29.414 0zm8.453 29.414c0 4.545-3.908 8.453-8.453 8.453H10.586c-4.545 0-8.453-3.908-8.453-8.453V10.586c0-4.545 3.908-8.453 8.453-8.453h18.828c4.545 0 8.453 3.908 8.453 8.453v18.828z" fill="url(#cpaint4_radial_1163_206)" fill-opacity=".8"/><path d="M29.414 0H10.586C4.749 0 0 4.749 0 10.586v18.828C0 35.251 4.749 40 10.586 40h18.828C35.251 40 40 35.251 40 29.414V10.586C40 4.749 35.251 0 29.414 0zm8.453 29.414c0 4.545-3.908 8.453-8.453 8.453H10.586c-4.545 0-8.453-3.908-8.453-8.453V10.586c0-4.545 3.908-8.453 8.453-8.453h18.828c4.545 0 8.453 3.908 8.453 8.453v18.828z" fill="#FFAD00" fill-opacity=".45"/><path d="M29.414 0H10.586C4.749 0 0 4.749 0 10.586v18.828C0 35.251 4.749 40 10.586 40h18.828C35.251 40 40 35.251 40 29.414V10.586C40 4.749 35.251 0 29.414 0zm8.453 29.414c0 4.545-3.908 8.453-8.453 8.453H10.586c-4.545 0-8.453-3.908-8.453-8.453V10.586c0-4.545 3.908-8.453 8.453-8.453h18.828c4.545 0 8.453 3.908 8.453 8.453v18.828z" fill="url(#cpaint5_radial_1163_206)" fill-opacity=".8"/><path d="M31.14 7.688a1.176 1.176 0 00-1.171 1.171c0 .309.125.611.343.83.218.217.52.342.829.342.308 0 .61-.125.829-.343a1.18 1.18 0 00.343-.829 1.178 1.178 0 00-1.172-1.172z" fill="url(#cpaint6_linear_1163_206)"/><path d="M31.14 7.688a1.176 1.176 0 00-1.171 1.171c0 .309.125.611.343.83.218.217.52.342.829.342.308 0 .61-.125.829-.343a1.18 1.18 0 00.343-.829 1.178 1.178 0 00-1.172-1.172z" fill="url(#cpaint7_radial_1163_206)" fill-opacity=".8"/><path d="M31.14 7.688a1.176 1.176 0 00-1.171 1.171c0 .309.125.611.343.83.218.217.52.342.829.342.308 0 .61-.125.829-.343a1.18 1.18 0 00.343-.829 1.178 1.178 0 00-1.172-1.172z" fill="#FFAD00" fill-opacity=".45"/><path d="M31.14 7.688a1.176 1.176 0 00-1.171 1.171c0 .309.125.611.343.83.218.217.52.342.829.342.308 0 .61-.125.829-.343a1.18 1.18 0 00.343-.829 1.178 1.178 0 00-1.172-1.172z" fill="url(#cpaint8_radial_1163_206)" fill-opacity=".8"/><defs><radialGradient id="cpaint1_radial_1163_206" cx="0" cy="0" r="1" gradientUnits="userSpaceOnUse" gradientTransform="matrix(9.88967 19.91623 -8.2819 4.11249 10.042 10.042)"><stop stop-color="#fff"/><stop offset="1" stop-color="#F8B017" stop-opacity=".2"/></radialGradient><radialGradient id="cpaint2_radial_1163_206" cx="0" cy="0" r="1" gradientUnits="userSpaceOnUse" gradientTransform="matrix(10.9885 19.91623 -11.44514 6.3147 10.042 10.042)"><stop offset=".284" stop-color="#fff" stop-opacity=".75"/><stop offset=".99" stop-color="#F8B017" stop-opacity=".1"/></radialGradient><radialGradient id="cpaint4_radial_1163_206" cx="0" cy="0" r="1" gradientUnits="userSpaceOnUse" gradientTransform="matrix(19.86207 39.99995 -16.6332 8.25925 0 0)"><stop stop-color="#fff"/><stop offset="1" stop-color="#F8B017" stop-opacity=".2"/></radialGradient><radialGradient id="cpaint5_radial_1163_206" cx="0" cy="0" r="1" gradientUnits="userSpaceOnUse" gradientTransform="rotate(61.113) scale(45.6841 26.2528)"><stop offset=".284" stop-color="#fff" stop-opacity=".75"/><stop offset=".99" stop-color="#F8B017" stop-opacity=".1"/></radialGradient><radialGradient id="cpaint7_radial_1163_206" cx="0" cy="0" r="1" gradientUnits="userSpaceOnUse" gradientTransform="matrix(1.1638 2.34374 -.9746 .48394 29.969 7.688)"><stop stop-color="#fff"/><stop offset="1" stop-color="#F8B017" stop-opacity=".2"/></radialGradient><radialGradient id="cpaint8_radial_1163_206" cx="0" cy="0" r="1" gradientUnits="userSpaceOnUse" gradientTransform="matrix(1.2931 2.34374 -1.34686 .7431 29.969 7.688)"><stop offset=".284" stop-color="#fff" stop-opacity=".75"/><stop offset=".99" stop-color="#F8B017" stop-opacity=".1"/></radialGradient><linearGradient id="cpaint0_linear_1163_206" x1="10.042" y1="10.042" x2="34.835" y2="15.536" gradientUnits="userSpaceOnUse"><stop offset=".208" stop-color="#fff"/><stop offset=".37" stop-color="#59636C" stop-opacity=".65"/><stop offset=".661" stop-color="#fff"/><stop offset=".783" stop-color="#486177" stop-opacity=".55"/><stop offset="1" stop-color="#67737E" stop-opacity=".95"/></linearGradient><linearGradient id="cpaint3_linear_1163_206" x1="0" y1="0" x2="49.793" y2="11.034" gradientUnits="userSpaceOnUse"><stop offset=".208" stop-color="#fff"/><stop offset=".37" stop-color="#59636C" stop-opacity=".65"/><stop offset=".661" stop-color="#fff"/><stop offset=".783" stop-color="#486177" stop-opacity=".55"/><stop offset="1" stop-color="#67737E" stop-opacity=".95"/></linearGradient><linearGradient id="cpaint6_linear_1163_206" x1="29.969" y1="7.688" x2="32.886" y2="8.334" gradientUnits="userSpaceOnUse"><stop offset=".208" stop-color="#fff"/><stop offset=".37" stop-color="#59636C" stop-opacity=".65"/><stop offset=".661" stop-color="#fff"/><stop offset=".783" stop-color="#486177" stop-opacity=".55"/><stop offset="1" stop-color="#67737E" stop-opacity=".95"/></linearGradient></defs></svg><svg fill="none" viewBox="0 0 40 40" id="skype" xmlns="http://www.w3.org/2000/svg"><g clip-path="url(#dclip0_1163_216)"><path d="M38.4 23.9c.616-2.917.531-5.961-.25-8.84A18.806 18.806 0 0033.3 6.7a18.806 18.806 0 00-8.36-4.851 18.934 18.934 0 00-8.84-.25A10.525 10.525 0 00.035 9.661 10.542 10.542 0 001.598 16.1a18.935 18.935 0 00.25 8.84A18.805 18.805 0 006.7 33.3a18.807 18.807 0 008.36 4.851c2.879.78 5.923.865 8.84.25a10.537 10.537 0 006.44 1.565 10.525 10.525 0 009.625-9.626c.185-2.265-.369-4.53-1.564-6.44zm-2.9 11.6c-2.778 2.778-7.685 3.48-10.892 1.224a1.23 1.23 0 00-.996-.19C18.02 37.884 12.062 36.061 8 32c-4.06-4.061-5.85-10.41-4.5-16a1.23 1.23 0 00-.19-.996C1.055 11.796 1.723 7.278 4.5 4.5c2.778-2.778 7.796-3.446 11.004-1.19.29.204.652.273.996.19C22.091 2.15 27.94 3.939 32 8c4.061 4.06 5.85 10.31 4.5 15.9a1.23 1.23 0 00.19.997c2.257 3.207 1.589 7.825-1.19 10.603z" fill="url(#dpaint0_linear_1163_216)"/><path d="M38.4 23.9c.616-2.917.531-5.961-.25-8.84A18.806 18.806 0 0033.3 6.7a18.806 18.806 0 00-8.36-4.851 18.934 18.934 0 00-8.84-.25A10.525 10.525 0 00.035 9.661 10.542 10.542 0 001.598 16.1a18.935 18.935 0 00.25 8.84A18.805 18.805 0 006.7 33.3a18.807 18.807 0 008.36 4.851c2.879.78 5.923.865 8.84.25a10.537 10.537 0 006.44 1.565 10.525 10.525 0 009.625-9.626c.185-2.265-.369-4.53-1.564-6.44zm-2.9 11.6c-2.778 2.778-7.685 3.48-10.892 1.224a1.23 1.23 0 00-.996-.19C18.02 37.884 12.062 36.061 8 32c-4.06-4.061-5.85-10.41-4.5-16a1.23 1.23 0 00-.19-.996C1.055 11.796 1.723 7.278 4.5 4.5c2.778-2.778 7.796-3.446 11.004-1.19.29.204.652.273.996.19C22.091 2.15 27.94 3.939 32 8c4.061 4.06 5.85 10.31 4.5 15.9a1.23 1.23 0 00.19.997c2.257 3.207 1.589 7.825-1.19 10.603z" fill="url(#dpaint1_radial_1163_216)" fill-opacity=".8"/><path d="M38.4 23.9c.616-2.917.531-5.961-.25-8.84A18.806 18.806 0 0033.3 6.7a18.806 18.806 0 00-8.36-4.851 18.934 18.934 0 00-8.84-.25A10.525 10.525 0 00.035 9.661 10.542 10.542 0 001.598 16.1a18.935 18.935 0 00.25 8.84A18.805 18.805 0 006.7 33.3a18.807 18.807 0 008.36 4.851c2.879.78 5.923.865 8.84.25a10.537 10.537 0 006.44 1.565 10.525 10.525 0 009.625-9.626c.185-2.265-.369-4.53-1.564-6.44zm-2.9 11.6c-2.778 2.778-7.685 3.48-10.892 1.224a1.23 1.23 0 00-.996-.19C18.02 37.884 12.062 36.061 8 32c-4.06-4.061-5.85-10.41-4.5-16a1.23 1.23 0 00-.19-.996C1.055 11.796 1.723 7.278 4.5 4.5c2.778-2.778 7.796-3.446 11.004-1.19.29.204.652.273.996.19C22.091 2.15 27.94 3.939 32 8c4.061 4.06 5.85 10.31 4.5 15.9a1.23 1.23 0 00.19.997c2.257 3.207 1.589 7.825-1.19 10.603z" fill="#FFAD00" fill-opacity=".45"/><path d="M38.4 23.9c.616-2.917.531-5.961-.25-8.84A18.806 18.806 0 0033.3 6.7a18.806 18.806 0 00-8.36-4.851 18.934 18.934 0 00-8.84-.25A10.525 10.525 0 00.035 9.661 10.542 10.542 0 001.598 16.1a18.935 18.935 0 00.25 8.84A18.805 18.805 0 006.7 33.3a18.807 18.807 0 008.36 4.851c2.879.78 5.923.865 8.84.25a10.537 10.537 0 006.44 1.565 10.525 10.525 0 009.625-9.626c.185-2.265-.369-4.53-1.564-6.44zm-2.9 11.6c-2.778 2.778-7.685 3.48-10.892 1.224a1.23 1.23 0 00-.996-.19C18.02 37.884 12.062 36.061 8 32c-4.06-4.061-5.85-10.41-4.5-16a1.23 1.23 0 00-.19-.996C1.055 11.796 1.723 7.278 4.5 4.5c2.778-2.778 7.796-3.446 11.004-1.19.29.204.652.273.996.19C22.091 2.15 27.94 3.939 32 8c4.061 4.06 5.85 10.31 4.5 15.9a1.23 1.23 0 00.19.997c2.257 3.207 1.589 7.825-1.19 10.603z" fill="url(#dpaint2_radial_1163_216)" fill-opacity=".8"/><path d="M20.23 18.655c-2.54-.86-5.417-1.833-5.417-3.272 0-1.837 2.375-3.388 5.187-3.388 2.812 0 5.187 1.551 5.187 3.388h2.46c0-1.64-.85-3.154-2.391-4.263-1.42-1.022-3.286-1.584-5.256-1.584-1.97 0-3.836.562-5.255 1.584-1.542 1.11-2.391 2.623-2.391 4.263 0 1.495.858 2.756 2.551 3.75 1.278.749 2.935 1.31 4.537 1.851 2.825.956 5.745 1.944 5.745 3.633 0 1.836-2.375 3.388-5.187 3.388-2.812 0-5.187-1.552-5.187-3.388h-2.46c0 1.64.85 3.154 2.392 4.263 1.42 1.021 3.286 1.584 5.255 1.584 1.97 0 3.836-.563 5.256-1.584 1.541-1.11 2.39-2.623 2.39-4.263 0-3.453-3.94-4.786-7.416-5.962z" fill="url(#dpaint3_linear_1163_216)"/><path d="M20.23 18.655c-2.54-.86-5.417-1.833-5.417-3.272 0-1.837 2.375-3.388 5.187-3.388 2.812 0 5.187 1.551 5.187 3.388h2.46c0-1.64-.85-3.154-2.391-4.263-1.42-1.022-3.286-1.584-5.256-1.584-1.97 0-3.836.562-5.255 1.584-1.542 1.11-2.391 2.623-2.391 4.263 0 1.495.858 2.756 2.551 3.75 1.278.749 2.935 1.31 4.537 1.851 2.825.956 5.745 1.944 5.745 3.633 0 1.836-2.375 3.388-5.187 3.388-2.812 0-5.187-1.552-5.187-3.388h-2.46c0 1.64.85 3.154 2.392 4.263 1.42 1.021 3.286 1.584 5.255 1.584 1.97 0 3.836-.563 5.256-1.584 1.541-1.11 2.39-2.623 2.39-4.263 0-3.453-3.94-4.786-7.416-5.962z" fill="url(#dpaint4_radial_1163_216)" fill-opacity=".8"/><path d="M20.23 18.655c-2.54-.86-5.417-1.833-5.417-3.272 0-1.837 2.375-3.388 5.187-3.388 2.812 0 5.187 1.551 5.187 3.388h2.46c0-1.64-.85-3.154-2.391-4.263-1.42-1.022-3.286-1.584-5.256-1.584-1.97 0-3.836.562-5.255 1.584-1.542 1.11-2.391 2.623-2.391 4.263 0 1.495.858 2.756 2.551 3.75 1.278.749 2.935 1.31 4.537 1.851 2.825.956 5.745 1.944 5.745 3.633 0 1.836-2.375 3.388-5.187 3.388-2.812 0-5.187-1.552-5.187-3.388h-2.46c0 1.64.85 3.154 2.392 4.263 1.42 1.021 3.286 1.584 5.255 1.584 1.97 0 3.836-.563 5.256-1.584 1.541-1.11 2.39-2.623 2.39-4.263 0-3.453-3.94-4.786-7.416-5.962z" fill="#FFAD00" fill-opacity=".45"/><path d="M20.23 18.655c-2.54-.86-5.417-1.833-5.417-3.272 0-1.837 2.375-3.388 5.187-3.388 2.812 0 5.187 1.551 5.187 3.388h2.46c0-1.64-.85-3.154-2.391-4.263-1.42-1.022-3.286-1.584-5.256-1.584-1.97 0-3.836.562-5.255 1.584-1.542 1.11-2.391 2.623-2.391 4.263 0 1.495.858 2.756 2.551 3.75 1.278.749 2.935 1.31 4.537 1.851 2.825.956 5.745 1.944 5.745 3.633 0 1.836-2.375 3.388-5.187 3.388-2.812 0-5.187-1.552-5.187-3.388h-2.46c0 1.64.85 3.154 2.392 4.263 1.42 1.021 3.286 1.584 5.255 1.584 1.97 0 3.836-.563 5.256-1.584 1.541-1.11 2.39-2.623 2.39-4.263 0-3.453-3.94-4.786-7.416-5.962z" fill="url(#dpaint5_radial_1163_216)" fill-opacity=".8"/></g><defs><radialGradient id="dpaint1_radial_1163_216" cx="0" cy="0" r="1" gradientUnits="userSpaceOnUse" gradientTransform="matrix(19.86207 39.99995 -16.6332 8.25925 0 0)"><stop stop-color="#fff"/><stop offset="1" stop-color="#F8B017" stop-opacity=".2"/></radialGradient><radialGradient id="dpaint2_radial_1163_216" cx="0" cy="0" r="1" gradientUnits="userSpaceOnUse" gradientTransform="matrix(22.06897 39.99997 -22.98627 12.6821 0 0)"><stop offset=".284" stop-color="#fff" stop-opacity=".75"/><stop offset=".99" stop-color="#F8B017" stop-opacity=".1"/></radialGradient><radialGradient id="dpaint4_radial_1163_216" cx="0" cy="0" r="1" gradientUnits="userSpaceOnUse" gradientTransform="matrix(7.59358 20.92794 -7.00486 2.54167 12.354 9.536)"><stop stop-color="#fff"/><stop offset="1" stop-color="#F8B017" stop-opacity=".2"/></radialGradient><radialGradient id="dpaint5_radial_1163_216" cx="0" cy="0" r="1" gradientUnits="userSpaceOnUse" gradientTransform="matrix(8.43733 20.92801 -9.86041 3.97532 12.354 9.536)"><stop offset=".284" stop-color="#fff" stop-opacity=".75"/><stop offset=".99" stop-color="#F8B017" stop-opacity=".1"/></radialGradient><linearGradient id="dpaint0_linear_1163_216" x1="0" y1="0" x2="49.793" y2="11.035" gradientUnits="userSpaceOnUse"><stop offset=".208" stop-color="#fff"/><stop offset=".37" stop-color="#59636C" stop-opacity=".65"/><stop offset=".661" stop-color="#fff"/><stop offset=".783" stop-color="#486177" stop-opacity=".55"/><stop offset="1" stop-color="#67737E" stop-opacity=".95"/></linearGradient><linearGradient id="dpaint3_linear_1163_216" x1="12.354" y1="9.536" x2="31.815" y2="12.687" gradientUnits="userSpaceOnUse"><stop offset=".208" stop-color="#fff"/><stop offset=".37" stop-color="#59636C" stop-opacity=".65"/><stop offset=".661" stop-color="#fff"/><stop offset=".783" stop-color="#486177" stop-opacity=".55"/><stop offset="1" stop-color="#67737E" stop-opacity=".95"/></linearGradient><clipPath id="dclip0_1163_216"><path fill="#fff" d="M0 0h40v40H0z"/></clipPath></defs></svg><svg fill="none" viewBox="0 0 40 40" id="telegram" xmlns="http://www.w3.org/2000/svg"><path d="M20 0C8.954 0 0 8.954 0 20s8.954 20 20 20 20-8.954 20-20S31.046 0 20 0zm0 38.182C9.958 38.182 1.818 30.042 1.818 20 1.818 9.958 9.958 1.818 20 1.818c10.042 0 18.182 8.14 18.182 18.182 0 10.042-8.14 18.182-18.182 18.182z" fill="url(#epaint0_linear_1163_197)"/><path d="M20 0C8.954 0 0 8.954 0 20s8.954 20 20 20 20-8.954 20-20S31.046 0 20 0zm0 38.182C9.958 38.182 1.818 30.042 1.818 20 1.818 9.958 9.958 1.818 20 1.818c10.042 0 18.182 8.14 18.182 18.182 0 10.042-8.14 18.182-18.182 18.182z" fill="url(#epaint1_radial_1163_197)" fill-opacity=".8"/><path d="M20 0C8.954 0 0 8.954 0 20s8.954 20 20 20 20-8.954 20-20S31.046 0 20 0zm0 38.182C9.958 38.182 1.818 30.042 1.818 20 1.818 9.958 9.958 1.818 20 1.818c10.042 0 18.182 8.14 18.182 18.182 0 10.042-8.14 18.182-18.182 18.182z" fill="#FFAD00" fill-opacity=".45"/><path d="M20 0C8.954 0 0 8.954 0 20s8.954 20 20 20 20-8.954 20-20S31.046 0 20 0zm0 38.182C9.958 38.182 1.818 30.042 1.818 20 1.818 9.958 9.958 1.818 20 1.818c10.042 0 18.182 8.14 18.182 18.182 0 10.042-8.14 18.182-18.182 18.182z" fill="url(#epaint2_radial_1163_197)" fill-opacity=".8"/><path d="M24.688 30.694c1.903.807 2.613-.914 2.615-.918l3.606-17.604c0-1.922-2.226-1.1-2.418-1.02l-19.995 7.62c-1.717.631-1.541 2.29-.006 2.769 1.721.567 3.445 1.127 5.168 1.69l10.53-6.495c-2.803 2.452-5.609 4.901-8.414 7.35 1.44 1.072 7.88 6.168 8.914 6.608z" fill="url(#epaint3_linear_1163_197)"/><path d="M24.688 30.694c1.903.807 2.613-.914 2.615-.918l3.606-17.604c0-1.922-2.226-1.1-2.418-1.02l-19.995 7.62c-1.717.631-1.541 2.29-.006 2.769 1.721.567 3.445 1.127 5.168 1.69l10.53-6.495c-2.803 2.452-5.609 4.901-8.414 7.35 1.44 1.072 7.88 6.168 8.914 6.608z" fill="url(#epaint4_radial_1163_197)" fill-opacity=".8"/><path d="M24.688 30.694c1.903.807 2.613-.914 2.615-.918l3.606-17.604c0-1.922-2.226-1.1-2.418-1.02l-19.995 7.62c-1.717.631-1.541 2.29-.006 2.769 1.721.567 3.445 1.127 5.168 1.69l10.53-6.495c-2.803 2.452-5.609 4.901-8.414 7.35 1.44 1.072 7.88 6.168 8.914 6.608z" fill="#FFAD00" fill-opacity=".45"/><path d="M24.688 30.694c1.903.807 2.613-.914 2.615-.918l3.606-17.604c0-1.922-2.226-1.1-2.418-1.02l-19.995 7.62c-1.717.631-1.541 2.29-.006 2.769 1.721.567 3.445 1.127 5.168 1.69l10.53-6.495c-2.803 2.452-5.609 4.901-8.414 7.35 1.44 1.072 7.88 6.168 8.914 6.608z" fill="url(#epaint5_radial_1163_197)" fill-opacity=".8"/><defs><radialGradient id="epaint1_radial_1163_197" cx="0" cy="0" r="1" gradientUnits="userSpaceOnUse" gradientTransform="matrix(19.86207 39.99995 -16.6332 8.25925 0 0)"><stop stop-color="#fff"/><stop offset="1" stop-color="#F8B017" stop-opacity=".2"/></radialGradient><radialGradient id="epaint2_radial_1163_197" cx="0" cy="0" r="1" gradientUnits="userSpaceOnUse" gradientTransform="rotate(61.113) scale(45.6841 26.2528)"><stop offset=".284" stop-color="#fff" stop-opacity=".75"/><stop offset=".99" stop-color="#F8B017" stop-opacity=".1"/></radialGradient><radialGradient id="epaint4_radial_1163_197" cx="0" cy="0" r="1" gradientUnits="userSpaceOnUse" gradientTransform="rotate(59.594 -5.89 11.805) scale(23.1894 10.567)"><stop stop-color="#fff"/><stop offset="1" stop-color="#F8B017" stop-opacity=".2"/></radialGradient><radialGradient id="epaint5_radial_1163_197" cx="0" cy="0" r="1" gradientUnits="userSpaceOnUse" gradientTransform="rotate(56.894 -6.432 12.167) scale(23.876 14.8412)"><stop offset=".284" stop-color="#fff" stop-opacity=".75"/><stop offset=".99" stop-color="#F8B017" stop-opacity=".1"/></radialGradient><linearGradient id="epaint0_linear_1163_197" x1="0" y1="0" x2="49.793" y2="11.034" gradientUnits="userSpaceOnUse"><stop offset=".208" stop-color="#fff"/><stop offset=".37" stop-color="#59636C" stop-opacity=".65"/><stop offset=".661" stop-color="#fff"/><stop offset=".783" stop-color="#486177" stop-opacity=".55"/><stop offset="1" stop-color="#67737E" stop-opacity=".95"/></linearGradient><linearGradient id="epaint3_linear_1163_197" x1="7.273" y1="10.909" x2="36.16" y2="18.475" gradientUnits="userSpaceOnUse"><stop offset=".208" stop-color="#fff"/><stop offset=".37" stop-color="#59636C" stop-opacity=".65"/><stop offset=".661" stop-color="#fff"/><stop offset=".783" stop-color="#486177" stop-opacity=".55"/><stop offset="1" stop-color="#67737E" stop-opacity=".95"/></linearGradient></defs></svg><svg fill="none" viewBox="0 0 40 40" id="twitter" xmlns="http://www.w3.org/2000/svg"><path d="M29.5 13a7.553 7.553 0 01-2.373.91 3.754 3.754 0 00-2.727-1.165 3.7 3.7 0 00-3.727 3.637c0 .281.034.562.1.836a10.645 10.645 0 01-7.691-3.836 3.637 3.637 0 00-.51 1.818c0 1.235.627 2.385 1.665 3.055a3.763 3.763 0 01-1.691-.464v.045a3.69 3.69 0 002.99 3.637 3.809 3.809 0 01-1.681.063 3.727 3.727 0 003.482 2.546 7.555 7.555 0 01-4.61 1.59c-.303 0-.607-.018-.909-.054a10.681 10.681 0 005.719 1.655c5.772.105 10.538-4.49 10.643-10.262a10.2 10.2 0 00.002-.184v-.472a7.554 7.554 0 001.818-1.9 7.544 7.544 0 01-2.145.581A3.7 3.7 0 0029.5 13z" fill="url(#fpaint0_linear_1163_213)"/><path d="M29.5 13a7.553 7.553 0 01-2.373.91 3.754 3.754 0 00-2.727-1.165 3.7 3.7 0 00-3.727 3.637c0 .281.034.562.1.836a10.645 10.645 0 01-7.691-3.836 3.637 3.637 0 00-.51 1.818c0 1.235.627 2.385 1.665 3.055a3.763 3.763 0 01-1.691-.464v.045a3.69 3.69 0 002.99 3.637 3.809 3.809 0 01-1.681.063 3.727 3.727 0 003.482 2.546 7.555 7.555 0 01-4.61 1.59c-.303 0-.607-.018-.909-.054a10.681 10.681 0 005.719 1.655c5.772.105 10.538-4.49 10.643-10.262a10.2 10.2 0 00.002-.184v-.472a7.554 7.554 0 001.818-1.9 7.544 7.544 0 01-2.145.581A3.7 3.7 0 0029.5 13z" fill="url(#fpaint1_radial_1163_213)" fill-opacity=".8"/><path d="M29.5 13a7.553 7.553 0 01-2.373.91 3.754 3.754 0 00-2.727-1.165 3.7 3.7 0 00-3.727 3.637c0 .281.034.562.1.836a10.645 10.645 0 01-7.691-3.836 3.637 3.637 0 00-.51 1.818c0 1.235.627 2.385 1.665 3.055a3.763 3.763 0 01-1.691-.464v.045a3.69 3.69 0 002.99 3.637 3.809 3.809 0 01-1.681.063 3.727 3.727 0 003.482 2.546 7.555 7.555 0 01-4.61 1.59c-.303 0-.607-.018-.909-.054a10.681 10.681 0 005.719 1.655c5.772.105 10.538-4.49 10.643-10.262a10.2 10.2 0 00.002-.184v-.472a7.554 7.554 0 001.818-1.9 7.544 7.544 0 01-2.145.581A3.7 3.7 0 0029.5 13z" fill="#FFAD00" fill-opacity=".45"/><path d="M29.5 13a7.553 7.553 0 01-2.373.91 3.754 3.754 0 00-2.727-1.165 3.7 3.7 0 00-3.727 3.637c0 .281.034.562.1.836a10.645 10.645 0 01-7.691-3.836 3.637 3.637 0 00-.51 1.818c0 1.235.627 2.385 1.665 3.055a3.763 3.763 0 01-1.691-.464v.045a3.69 3.69 0 002.99 3.637 3.809 3.809 0 01-1.681.063 3.727 3.727 0 003.482 2.546 7.555 7.555 0 01-4.61 1.59c-.303 0-.607-.018-.909-.054a10.681 10.681 0 005.719 1.655c5.772.105 10.538-4.49 10.643-10.262a10.2 10.2 0 00.002-.184v-.472a7.554 7.554 0 001.818-1.9 7.544 7.544 0 01-2.145.581A3.7 3.7 0 0029.5 13z" fill="url(#fpaint2_radial_1163_213)" fill-opacity=".8"/><path d="M20 0C8.954 0 0 8.954 0 20s8.954 20 20 20 20-8.954 20-20S31.046 0 20 0zm0 38.182C9.958 38.182 1.818 30.042 1.818 20 1.818 9.958 9.958 1.818 20 1.818c10.042 0 18.182 8.14 18.182 18.182 0 10.042-8.14 18.182-18.182 18.182z" fill="url(#fpaint3_linear_1163_213)"/><path d="M20 0C8.954 0 0 8.954 0 20s8.954 20 20 20 20-8.954 20-20S31.046 0 20 0zm0 38.182C9.958 38.182 1.818 30.042 1.818 20 1.818 9.958 9.958 1.818 20 1.818c10.042 0 18.182 8.14 18.182 18.182 0 10.042-8.14 18.182-18.182 18.182z" fill="url(#fpaint4_radial_1163_213)" fill-opacity=".8"/><path d="M20 0C8.954 0 0 8.954 0 20s8.954 20 20 20 20-8.954 20-20S31.046 0 20 0zm0 38.182C9.958 38.182 1.818 30.042 1.818 20 1.818 9.958 9.958 1.818 20 1.818c10.042 0 18.182 8.14 18.182 18.182 0 10.042-8.14 18.182-18.182 18.182z" fill="#FFAD00" fill-opacity=".45"/><path d="M20 0C8.954 0 0 8.954 0 20s8.954 20 20 20 20-8.954 20-20S31.046 0 20 0zm0 38.182C9.958 38.182 1.818 30.042 1.818 20 1.818 9.958 9.958 1.818 20 1.818c10.042 0 18.182 8.14 18.182 18.182 0 10.042-8.14 18.182-18.182 18.182z" fill="url(#fpaint5_radial_1163_213)" fill-opacity=".8"/><defs><radialGradient id="fpaint1_radial_1163_213" cx="0" cy="0" r="1" gradientUnits="userSpaceOnUse" gradientTransform="rotate(58.144 -5.554 17.002) scale(17.1058 8.00514)"><stop stop-color="#fff"/><stop offset="1" stop-color="#F8B017" stop-opacity=".2"/></radialGradient><radialGradient id="fpaint2_radial_1163_213" cx="0" cy="0" r="1" gradientUnits="userSpaceOnUse" gradientTransform="matrix(10.03137 14.52925 -9.22934 6.37217 11.818 12.745)"><stop offset=".284" stop-color="#fff" stop-opacity=".75"/><stop offset=".99" stop-color="#F8B017" stop-opacity=".1"/></radialGradient><radialGradient id="fpaint4_radial_1163_213" cx="0" cy="0" r="1" gradientUnits="userSpaceOnUse" gradientTransform="matrix(19.86207 39.99995 -16.6332 8.25925 0 0)"><stop stop-color="#fff"/><stop offset="1" stop-color="#F8B017" stop-opacity=".2"/></radialGradient><radialGradient id="fpaint5_radial_1163_213" cx="0" cy="0" r="1" gradientUnits="userSpaceOnUse" gradientTransform="rotate(61.113) scale(45.6841 26.2528)"><stop offset=".284" stop-color="#fff" stop-opacity=".75"/><stop offset=".99" stop-color="#F8B017" stop-opacity=".1"/></radialGradient><linearGradient id="fpaint0_linear_1163_213" x1="11.818" y1="12.745" x2="33.867" y2="18.86" gradientUnits="userSpaceOnUse"><stop offset=".208" stop-color="#fff"/><stop offset=".37" stop-color="#59636C" stop-opacity=".65"/><stop offset=".661" stop-color="#fff"/><stop offset=".783" stop-color="#486177" stop-opacity=".55"/><stop offset="1" stop-color="#67737E" stop-opacity=".95"/></linearGradient><linearGradient id="fpaint3_linear_1163_213" x1="0" y1="0" x2="49.793" y2="11.034" gradientUnits="userSpaceOnUse"><stop offset=".208" stop-color="#fff"/><stop offset=".37" stop-color="#59636C" stop-opacity=".65"/><stop offset=".661" stop-color="#fff"/><stop offset=".783" stop-color="#486177" stop-opacity=".55"/><stop offset="1" stop-color="#67737E" stop-opacity=".95"/></linearGradient></defs></svg><svg fill="none" viewBox="0 0 40 40" id="watsup" xmlns="http://www.w3.org/2000/svg"><path d="M20 0C8.954 0 0 8.954 0 20c0 3.273.787 6.363 2.18 9.09L0 40l10.91-2.18A19.916 19.916 0 0020 40c11.046 0 20-8.954 20-20S31.046 0 20 0zm0 38.182C9.958 38.182 1.818 30.042 1.818 20 1.818 9.958 9.958 1.818 20 1.818c10.042 0 18.182 8.14 18.182 18.182 0 10.042-8.14 18.182-18.182 18.182z" fill="url(#gpaint0_linear_1163_210)"/><path d="M20 0C8.954 0 0 8.954 0 20c0 3.273.787 6.363 2.18 9.09L0 40l10.91-2.18A19.916 19.916 0 0020 40c11.046 0 20-8.954 20-20S31.046 0 20 0zm0 38.182C9.958 38.182 1.818 30.042 1.818 20 1.818 9.958 9.958 1.818 20 1.818c10.042 0 18.182 8.14 18.182 18.182 0 10.042-8.14 18.182-18.182 18.182z" fill="url(#gpaint1_radial_1163_210)" fill-opacity=".8"/><path d="M20 0C8.954 0 0 8.954 0 20c0 3.273.787 6.363 2.18 9.09L0 40l10.91-2.18A19.916 19.916 0 0020 40c11.046 0 20-8.954 20-20S31.046 0 20 0zm0 38.182C9.958 38.182 1.818 30.042 1.818 20 1.818 9.958 9.958 1.818 20 1.818c10.042 0 18.182 8.14 18.182 18.182 0 10.042-8.14 18.182-18.182 18.182z" fill="#FFAD00" fill-opacity=".45"/><path d="M20 0C8.954 0 0 8.954 0 20c0 3.273.787 6.363 2.18 9.09L0 40l10.91-2.18A19.916 19.916 0 0020 40c11.046 0 20-8.954 20-20S31.046 0 20 0zm0 38.182C9.958 38.182 1.818 30.042 1.818 20 1.818 9.958 9.958 1.818 20 1.818c10.042 0 18.182 8.14 18.182 18.182 0 10.042-8.14 18.182-18.182 18.182z" fill="url(#gpaint2_radial_1163_210)" fill-opacity=".8"/><path d="M30.384 24.52l-4.047-2.7a1.181 1.181 0 00-1.582.257l-1.042 1.434a.504.504 0 01-.646.136l-.224-.124c-.744-.405-1.669-.91-3.532-2.775-1.864-1.865-2.37-2.79-2.775-3.533l-.123-.224a.505.505 0 01.133-.649l1.378-1.096c.485-.38.597-1.068.257-1.582l-2.7-4.048a1.175 1.175 0 00-1.583-.357l-1.693 1.017c-.532.313-.877.819-1.043 1.413-.61 2.221-.532 6.393 5.114 12.04 4.49 4.492 8.17 5.362 10.468 5.362a5.905 5.905 0 001.566-.205 2.385 2.385 0 001.413-1.089l1.018-1.692a1.176 1.176 0 00-.357-1.585z" fill="url(#gpaint3_linear_1163_210)"/><path d="M30.384 24.52l-4.047-2.7a1.181 1.181 0 00-1.582.257l-1.042 1.434a.504.504 0 01-.646.136l-.224-.124c-.744-.405-1.669-.91-3.532-2.775-1.864-1.865-2.37-2.79-2.775-3.533l-.123-.224a.505.505 0 01.133-.649l1.378-1.096c.485-.38.597-1.068.257-1.582l-2.7-4.048a1.175 1.175 0 00-1.583-.357l-1.693 1.017c-.532.313-.877.819-1.043 1.413-.61 2.221-.532 6.393 5.114 12.04 4.49 4.492 8.17 5.362 10.468 5.362a5.905 5.905 0 001.566-.205 2.385 2.385 0 001.413-1.089l1.018-1.692a1.176 1.176 0 00-.357-1.585z" fill="url(#gpaint4_radial_1163_210)" fill-opacity=".8"/><path d="M30.384 24.52l-4.047-2.7a1.181 1.181 0 00-1.582.257l-1.042 1.434a.504.504 0 01-.646.136l-.224-.124c-.744-.405-1.669-.91-3.532-2.775-1.864-1.865-2.37-2.79-2.775-3.533l-.123-.224a.505.505 0 01.133-.649l1.378-1.096c.485-.38.597-1.068.257-1.582l-2.7-4.048a1.175 1.175 0 00-1.583-.357l-1.693 1.017c-.532.313-.877.819-1.043 1.413-.61 2.221-.532 6.393 5.114 12.04 4.49 4.492 8.17 5.362 10.468 5.362a5.905 5.905 0 001.566-.205 2.385 2.385 0 001.413-1.089l1.018-1.692a1.176 1.176 0 00-.357-1.585z" fill="#FFAD00" fill-opacity=".45"/><path d="M30.384 24.52l-4.047-2.7a1.181 1.181 0 00-1.582.257l-1.042 1.434a.504.504 0 01-.646.136l-.224-.124c-.744-.405-1.669-.91-3.532-2.775-1.864-1.865-2.37-2.79-2.775-3.533l-.123-.224a.505.505 0 01.133-.649l1.378-1.096c.485-.38.597-1.068.257-1.582l-2.7-4.048a1.175 1.175 0 00-1.583-.357l-1.693 1.017c-.532.313-.877.819-1.043 1.413-.61 2.221-.532 6.393 5.114 12.04 4.49 4.492 8.17 5.362 10.468 5.362a5.905 5.905 0 001.566-.205 2.385 2.385 0 001.413-1.089l1.018-1.692a1.176 1.176 0 00-.357-1.585z" fill="url(#gpaint5_radial_1163_210)" fill-opacity=".8"/><defs><radialGradient id="gpaint1_radial_1163_210" cx="0" cy="0" r="1" gradientUnits="userSpaceOnUse" gradientTransform="matrix(19.86211 40.00004 -16.6332 8.25925 0 0)"><stop stop-color="#fff"/><stop offset="1" stop-color="#F8B017" stop-opacity=".2"/></radialGradient><radialGradient id="gpaint2_radial_1163_210" cx="0" cy="0" r="1" gradientUnits="userSpaceOnUse" gradientTransform="rotate(61.113) scale(45.6841 26.2528)"><stop offset=".284" stop-color="#fff" stop-opacity=".75"/><stop offset=".99" stop-color="#F8B017" stop-opacity=".1"/></radialGradient><radialGradient id="gpaint4_radial_1163_210" cx="0" cy="0" r="1" gradientUnits="userSpaceOnUse" gradientTransform="rotate(63.593 -1.877 13.344) scale(22.3299 9.28546)"><stop stop-color="#fff"/><stop offset="1" stop-color="#F8B017" stop-opacity=".2"/></radialGradient><radialGradient id="gpaint5_radial_1163_210" cx="0" cy="0" r="1" gradientUnits="userSpaceOnUse" gradientTransform="rotate(61.113 -2.245 13.785) scale(22.8421 13.1264)"><stop offset=".284" stop-color="#fff" stop-opacity=".75"/><stop offset=".99" stop-color="#F8B017" stop-opacity=".1"/></radialGradient><linearGradient id="gpaint0_linear_1163_210" x1="0" y1="0" x2="49.793" y2="11.034" gradientUnits="userSpaceOnUse"><stop offset=".208" stop-color="#fff"/><stop offset=".37" stop-color="#59636C" stop-opacity=".65"/><stop offset=".661" stop-color="#fff"/><stop offset=".783" stop-color="#486177" stop-opacity=".55"/><stop offset="1" stop-color="#67737E" stop-opacity=".95"/></linearGradient><linearGradient id="gpaint3_linear_1163_210" x1="10.909" y1="9.091" x2="35.806" y2="14.608" gradientUnits="userSpaceOnUse"><stop offset=".208" stop-color="#fff"/><stop offset=".37" stop-color="#59636C" stop-opacity=".65"/><stop offset=".661" stop-color="#fff"/><stop offset=".783" stop-color="#486177" stop-opacity=".55"/><stop offset="1" stop-color="#67737E" stop-opacity=".95"/></linearGradient></defs></svg></svg>